<svg width="1200" height="900" viewBox="0 0 1200 1200" fill="none" xmlns="http://www.w3.org/2000/svg">
  <g style="mix-blend-mode:lighten" opacity="0.8" filter="url(#filter0_f)">
    <path d="M543.922 881.308C543.922 877.469 537.972 877.469 537.972 881.308C537.972 885.147 543.922 885.147 543.922 881.308Z" fill="url(#paint0_linear)" />
    <path d="M664.951 557.773C664.951 553.935 659.001 553.935 659.001 557.773C659.001 561.612 664.951 561.612 664.951 557.773Z" fill="url(#paint1_linear)" />
    <path d="M531.069 562.332C531.069 558.493 525.119 558.493 525.119 562.332C525.119 566.171 531.069 566.171 531.069 562.332Z" fill="url(#paint2_linear)" />
    <path d="M660.429 754.03C660.429 750.191 654.479 750.191 654.479 754.03C654.479 757.868 660.429 757.868 660.429 754.03Z" fill="url(#paint3_linear)" />
    <path d="M564.986 731.957C564.986 728.118 559.036 728.118 559.036 731.957C559.036 735.916 564.986 735.916 564.986 731.957Z" fill="url(#paint4_linear)" />
    <path d="M679.232 1016.86C678.756 1016.86 678.28 1016.86 677.685 1016.86C676.138 1016.86 674.591 1018.18 674.71 1019.86C674.829 1021.54 676.019 1022.86 677.685 1022.86C678.161 1022.86 678.637 1022.86 679.232 1022.86C680.779 1022.86 682.326 1021.54 682.207 1019.86C682.088 1018.3 680.898 1016.86 679.232 1016.86Z" fill="url(#paint5_linear)" />
    <path d="M532.854 1025.38C532.378 1025.86 531.902 1026.34 531.307 1026.94C530.236 1028.02 530.117 1030.06 531.307 1031.14C532.497 1032.22 534.282 1032.34 535.472 1031.14C535.949 1030.66 536.425 1030.18 537.02 1029.58C538.091 1028.5 538.21 1026.46 537.02 1025.38C535.829 1024.3 534.044 1024.18 532.854 1025.38Z" fill="url(#paint6_linear)" />
    <path d="M638.651 938.05C638.651 934.211 632.701 934.211 632.701 938.05C632.701 941.888 638.651 941.888 638.651 938.05Z" fill="url(#paint7_linear)" />
    <path d="M549.872 418.379C549.872 414.54 543.922 414.54 543.922 418.379C543.922 422.218 549.872 422.218 549.872 418.379Z" fill="url(#paint8_linear)" />
    <path d="M694.227 335.006C694.227 331.168 688.277 331.168 688.277 335.006C688.277 338.845 694.227 338.845 694.227 335.006Z" fill="url(#paint9_linear)" />
    <path d="M734.808 406.263C734.808 402.424 728.858 402.424 728.858 406.263C728.858 410.102 734.808 410.102 734.808 406.263Z" fill="url(#paint10_linear)" />
    <path d="M861.074 524.425C861.074 520.586 855.123 520.586 855.123 524.425C855.123 528.263 861.074 528.263 861.074 524.425Z" fill="url(#paint11_linear)" />
    <path d="M719.813 651.703C719.813 647.864 713.863 647.864 713.863 651.703C713.863 655.542 719.813 655.542 719.813 651.703Z" fill="url(#paint12_linear)" />
    <path d="M873.093 665.379C873.093 661.54 867.143 661.54 867.143 665.379C867.143 669.217 873.093 669.217 873.093 665.379Z" fill="url(#paint13_linear)" />
    <path d="M843.104 810.771C843.104 806.932 837.153 806.932 837.153 810.771C837.153 814.61 843.104 814.61 843.104 810.771Z" fill="url(#paint14_linear)" />
    <path d="M827.99 880.468C827.99 876.63 822.04 876.63 822.04 880.468C822.04 884.307 827.99 884.307 827.99 880.468Z" fill="url(#paint15_linear)" />
    <path d="M891.182 947.167C891.182 943.328 885.232 943.328 885.232 947.167C885.232 951.005 891.182 951.005 891.182 947.167Z" fill="url(#paint16_linear)" />
    <path d="M865.596 1033.54C865.596 1029.7 859.646 1029.7 859.646 1033.54C859.646 1037.38 865.596 1037.38 865.596 1033.54Z" fill="url(#paint17_linear)" />
    <path d="M1000.91 1022.98C1000.91 1019.14 994.956 1019.14 994.956 1022.98C994.956 1026.82 1000.91 1026.82 1000.91 1022.98Z" fill="url(#paint18_linear)" />
    <path d="M970.798 813.77C970.798 809.931 964.847 809.931 964.847 813.77C964.847 817.729 970.798 817.729 970.798 813.77Z" fill="url(#paint19_linear)" />
    <path d="M1044.46 585.005C1044.46 581.166 1038.51 581.166 1038.51 585.005C1038.51 588.843 1044.46 588.843 1044.46 585.005Z" fill="url(#paint20_linear)" />
    <path d="M937.714 707.725C937.714 703.886 931.763 703.886 931.763 707.725C931.763 711.564 937.714 711.564 937.714 707.725Z" fill="url(#paint21_linear)" />
    <path d="M1001.86 479.559C1002.33 480.039 1002.81 480.519 1003.41 481.119C1004.48 482.198 1006.5 482.318 1007.57 481.119C1008.64 479.919 1008.76 478.12 1007.57 476.92C1007.09 476.44 1006.62 475.96 1006.02 475.36C1004.95 474.281 1002.93 474.161 1001.86 475.36C1000.79 476.56 1000.67 478.359 1001.86 479.559Z" fill="url(#paint22_linear)" />
    <path d="M954.256 381.911C954.256 378.072 948.305 378.072 948.305 381.911C948.305 385.87 954.256 385.87 954.256 381.911Z" fill="url(#paint23_linear)" />
    <path d="M837.035 338.005C837.035 334.167 831.084 334.167 831.084 338.005C831.084 341.844 837.035 341.844 837.035 338.005Z" fill="url(#paint24_linear)" />
    <path d="M1043.03 215.285C1043.03 211.447 1037.08 211.447 1037.08 215.285C1037.08 219.124 1043.03 219.124 1043.03 215.285Z" fill="url(#paint25_linear)" />
    <path d="M879.163 207.727C879.163 203.889 873.212 203.889 873.212 207.727C873.212 211.566 879.163 211.566 879.163 207.727Z" fill="url(#paint26_linear)" />
    <path d="M662.69 201.61C662.69 197.771 656.74 197.771 656.74 201.61C656.74 205.448 662.69 205.568 662.69 201.61Z" fill="url(#paint27_linear)" />
    <path d="M533.33 210.727C533.33 206.888 527.38 206.888 527.38 210.727C527.38 214.565 533.33 214.565 533.33 210.727Z" fill="url(#paint28_linear)" />
    <path d="M542.375 297.098C542.375 293.26 536.425 293.26 536.425 297.098C536.425 300.937 542.375 300.937 542.375 297.098Z" fill="url(#paint29_linear)" />
    <path d="M1059.46 818.329C1059.46 814.49 1053.51 814.49 1053.51 818.329C1053.51 822.287 1059.46 822.287 1059.46 818.329Z" fill="url(#paint30_linear)" />
    <path d="M1011.38 918.376C1011.38 914.537 1005.43 914.537 1005.43 918.376C1005.43 922.215 1011.38 922.215 1011.38 918.376Z" fill="url(#paint31_linear)" />
    <path d="M582.956 1024.42C582.956 1022.5 579.981 1022.5 579.981 1024.42C579.981 1026.34 582.956 1026.34 582.956 1024.42Z" fill="url(#paint32_linear)" />
    <path d="M525.833 951.725C525.833 949.806 522.858 949.806 522.858 951.725C522.858 953.645 525.833 953.645 525.833 951.725Z" fill="url(#paint33_linear)" />
    <path d="M537.853 804.773C537.853 802.854 534.877 802.854 534.877 804.773C534.877 806.693 537.853 806.693 537.853 804.773Z" fill="url(#paint34_linear)" />
    <path d="M604.02 872.911C604.02 870.992 601.045 870.992 601.045 872.911C601.045 874.83 604.02 874.83 604.02 872.911Z" fill="url(#paint35_linear)" />
    <path d="M563.439 475.96C563.439 474.041 560.464 474.041 560.464 475.96C560.464 477.88 563.439 477.88 563.439 475.96Z" fill="url(#paint36_linear)" />
    <path d="M542.375 642.586C542.375 640.667 539.4 640.667 539.4 642.586C539.4 644.505 542.375 644.505 542.375 642.586Z" fill="url(#paint37_linear)" />
    <path d="M554.395 563.772C554.395 561.852 551.419 561.852 551.419 563.772C551.419 565.691 554.395 565.691 554.395 563.772Z" fill="url(#paint38_linear)" />
    <path d="M564.986 406.263C564.986 404.344 562.011 404.344 562.011 406.263C562.011 408.182 564.986 408.182 564.986 406.263Z" fill="url(#paint39_linear)" />
    <path d="M700.296 389.588C700.296 387.669 697.321 387.669 697.321 389.588C697.321 391.508 700.296 391.508 700.296 389.588Z" fill="url(#paint40_linear)" />
    <path d="M737.783 380.471C737.783 378.552 734.808 378.552 734.808 380.471C734.808 382.391 737.783 382.391 737.783 380.471Z" fill="url(#paint41_linear)" />
    <path d="M628.059 359.238C628.059 357.319 625.084 357.319 625.084 359.238C625.084 361.158 628.059 361.158 628.059 359.238Z" fill="url(#paint42_linear)" />
    <path d="M646.148 328.888C646.148 326.969 643.173 326.969 643.173 328.888C643.173 330.808 646.148 330.808 646.148 328.888Z" fill="url(#paint43_linear)" />
    <path d="M644.601 224.402C644.601 222.483 641.626 222.483 641.626 224.402C641.626 226.322 644.601 226.322 644.601 224.402Z" fill="url(#paint44_linear)" />
    <path d="M712.316 194.052C711.84 194.052 711.364 194.052 710.769 194.052C708.865 194.052 708.865 197.051 710.769 197.051C711.245 197.051 711.721 197.051 712.316 197.051C714.22 197.051 714.22 194.052 712.316 194.052Z" fill="url(#paint45_linear)" />
    <path d="M557.489 210.727C557.489 208.807 554.513 208.807 554.513 210.727C554.513 212.646 557.489 212.646 557.489 210.727Z" fill="url(#paint46_linear)" />
    <path d="M870.118 307.775C870.118 305.856 867.143 305.856 867.143 307.775C867.143 309.695 870.118 309.695 870.118 307.775Z" fill="url(#paint47_linear)" />
    <path d="M864.049 339.565C864.049 337.645 861.074 337.645 861.074 339.565C861.074 341.484 864.049 341.484 864.049 339.565Z" fill="url(#paint48_linear)" />
    <path d="M855.123 210.727C855.123 208.807 852.148 208.807 852.148 210.727C852.148 212.646 855.123 212.646 855.123 210.727Z" fill="url(#paint49_linear)" />
    <path d="M927.241 401.705C927.241 399.785 924.266 399.785 924.266 401.705C924.266 403.624 927.241 403.624 927.241 401.705Z" fill="url(#paint50_linear)" />
    <path d="M946.758 416.82C946.758 414.9 943.783 414.9 943.783 416.82C943.783 418.739 946.758 418.739 946.758 416.82Z" fill="url(#paint51_linear)" />
    <path d="M856.552 556.214C856.552 554.295 853.576 554.295 853.576 556.214C853.576 558.133 856.552 558.133 856.552 556.214Z" fill="url(#paint52_linear)" />
    <path d="M880.591 524.425C880.591 522.505 877.616 522.505 877.616 524.425C877.616 526.344 880.591 526.344 880.591 524.425Z" fill="url(#paint53_linear)" />
    <path d="M835.606 700.167C836.082 700.167 836.558 700.167 837.153 700.167C839.058 700.167 839.058 697.168 837.153 697.168C836.677 697.168 836.201 697.168 835.606 697.168C833.702 697.168 833.583 700.167 835.606 700.167Z" fill="url(#paint54_linear)" />
    <path d="M844.532 656.262C844.532 654.342 841.557 654.342 841.557 656.262C841.557 658.181 844.532 658.181 844.532 656.262Z" fill="url(#paint55_linear)" />
    <path d="M686.73 736.515C686.73 734.596 683.754 734.596 683.754 736.515C683.754 738.435 686.73 738.435 686.73 736.515Z" fill="url(#paint56_linear)" />
    <path d="M683.754 901.702C683.754 899.782 680.779 899.782 680.779 901.702C680.779 903.621 683.754 903.621 683.754 901.702Z" fill="url(#paint57_linear)" />
    <path d="M646.148 880.468C646.148 878.549 643.173 878.549 643.173 880.468C643.173 882.388 646.148 882.388 646.148 880.468Z" fill="url(#paint58_linear)" />
    <path d="M646.148 1015.3C646.148 1013.39 643.173 1013.39 643.173 1015.3C643.173 1017.34 646.148 1017.34 646.148 1015.3Z" fill="url(#paint59_linear)" />
    <path d="M882.138 916.817C882.138 914.897 879.163 914.897 879.163 916.817C879.163 918.736 882.138 918.856 882.138 916.817Z" fill="url(#paint60_linear)" />
    <path d="M895.705 1006.31C895.705 1004.39 892.729 1004.39 892.729 1006.31C892.729 1008.23 895.705 1008.23 895.705 1006.31Z" fill="url(#paint61_linear)" />
    <path d="M979.842 1025.98C979.842 1024.06 976.867 1024.06 976.867 1025.98C976.867 1027.9 979.842 1027.9 979.842 1025.98Z" fill="url(#paint62_linear)" />
    <path d="M1027.92 986.514C1027.92 984.595 1024.95 984.595 1024.95 986.514C1024.95 988.553 1027.92 988.553 1027.92 986.514Z" fill="url(#paint63_linear)" />
    <path d="M1070.05 1041.1C1070.05 1039.18 1067.07 1039.18 1067.07 1041.1C1067.07 1043.02 1070.05 1043.02 1070.05 1041.1Z" fill="url(#paint64_linear)" />
    <path d="M993.409 866.913C993.409 864.994 990.434 864.994 990.434 866.913C990.434 868.832 993.409 868.832 993.409 866.913Z" fill="url(#paint65_linear)" />
    <path d="M967.822 928.933C967.822 927.013 964.847 927.013 964.847 928.933C964.847 930.972 967.822 930.972 967.822 928.933Z" fill="url(#paint66_linear)" />
    <path d="M1065.53 777.422C1065.53 775.503 1062.55 775.503 1062.55 777.422C1062.55 779.341 1065.53 779.341 1065.53 777.422Z" fill="url(#paint67_linear)" />
    <path d="M954.256 680.494C954.256 678.574 951.281 678.574 951.281 680.494C951.281 682.413 954.256 682.413 954.256 680.494Z" fill="url(#paint68_linear)" />
    <path d="M1053.51 622.912C1053.51 620.993 1050.53 620.993 1050.53 622.912C1050.53 624.832 1053.51 624.832 1053.51 622.912Z" fill="url(#paint69_linear)" />
    <path d="M1003.88 585.005C1003.88 583.085 1000.91 583.085 1000.91 585.005C1000.91 586.924 1003.88 586.924 1003.88 585.005Z" fill="url(#paint70_linear)" />
    <path d="M1027.92 462.285C1027.92 460.365 1024.95 460.365 1024.95 462.285C1024.95 464.204 1027.92 464.204 1027.92 462.285Z" fill="url(#paint71_linear)" />
    <path d="M855.123 431.935C855.123 430.015 852.148 430.015 852.148 431.935C852.148 433.854 855.123 433.854 855.123 431.935Z" fill="url(#paint72_linear)" />
    <path d="M934.739 471.402C934.739 470.922 934.739 470.442 934.739 469.842C934.739 467.923 931.763 467.923 931.763 469.842C931.763 470.322 931.763 470.802 931.763 471.402C931.763 473.321 934.739 473.321 934.739 471.402Z" fill="url(#paint73_linear)" />
    <path d="M948.305 295.539C948.305 293.62 945.33 293.62 945.33 295.539C945.33 297.578 948.305 297.578 948.305 295.539Z" fill="url(#paint74_linear)" />
    <path d="M1053.51 375.913C1053.51 373.993 1050.53 373.993 1050.53 375.913C1050.53 377.832 1053.51 377.832 1053.51 375.913Z" fill="url(#paint75_linear)" />
    <path d="M1067.07 278.984C1067.07 277.065 1064.1 277.065 1064.1 278.984C1064.1 280.904 1067.07 280.904 1067.07 278.984Z" fill="url(#paint76_linear)" />
    <path d="M1029.47 233.519C1029.47 231.6 1026.49 231.6 1026.49 233.519C1026.49 235.439 1029.47 235.439 1029.47 233.519Z" fill="url(#paint77_linear)" />
    <path d="M1002.45 207.728C1002.45 205.808 999.478 205.808 999.478 207.728C999.478 209.647 1002.45 209.647 1002.45 207.728Z" fill="url(#paint78_linear)" />
    <path d="M610.089 545.658C610.089 543.738 607.114 543.738 607.114 545.658C607.114 547.577 610.089 547.577 610.089 545.658Z" fill="url(#paint79_linear)" />
    <path d="M521.311 360.798C521.311 358.878 518.336 358.878 518.336 360.798C518.336 362.717 521.311 362.717 521.311 360.798Z" fill="url(#paint80_linear)" />
    <path d="M608.542 438.053C608.542 436.133 605.567 436.133 605.567 438.053C605.567 439.972 608.542 439.972 608.542 438.053Z" fill="url(#paint81_linear)" />
    <path d="M605.567 803.214C605.567 801.294 602.592 801.294 602.592 803.214C602.592 805.133 605.567 805.133 605.567 803.214Z" fill="url(#paint82_linear)" />
    <path d="M913.675 765.306C913.675 763.387 910.699 763.387 910.699 765.306C910.699 767.225 913.675 767.225 913.675 765.306Z" fill="url(#paint83_linear)" />
    <path d="M873.093 812.331C873.093 810.411 870.118 810.411 870.118 812.331C870.118 814.25 873.093 814.25 873.093 812.331Z" fill="url(#paint84_linear)" />
  </g>
  <g style="mix-blend-mode:multiply" opacity="0.6">
    <rect width="1200" height="1200" fill="black" />
  </g>
  <defs>
    <filter id="filter0_f" x="516.336" y="192.052" width="555.713" height="852.483" filterUnits="userSpaceOnUse" color-interpolation-filters="sRGB">
      <feFlood flood-opacity="0" result="BackgroundImageFix" />
      <feBlend mode="normal" in="SourceGraphic" in2="BackgroundImageFix" result="shape" />
      <feGaussianBlur stdDeviation="1" result="effect1_foregroundBlur" />
    </filter>
    <linearGradient id="paint0_linear" x1="794.192" y1="194.052" x2="794.192" y2="1042.54" gradientUnits="userSpaceOnUse">
      <stop stop-color="white" />
      <stop offset="1" stop-color="white" stop-opacity="0" />
    </linearGradient>
    <linearGradient id="paint1_linear" x1="794.192" y1="194.052" x2="794.192" y2="1042.54" gradientUnits="userSpaceOnUse">
      <stop stop-color="white" />
      <stop offset="1" stop-color="white" stop-opacity="0" />
    </linearGradient>
    <linearGradient id="paint2_linear" x1="794.192" y1="194.052" x2="794.192" y2="1042.54" gradientUnits="userSpaceOnUse">
      <stop stop-color="white" />
      <stop offset="1" stop-color="white" stop-opacity="0" />
    </linearGradient>
    <linearGradient id="paint3_linear" x1="794.192" y1="194.052" x2="794.192" y2="1042.54" gradientUnits="userSpaceOnUse">
      <stop stop-color="white" />
      <stop offset="1" stop-color="white" stop-opacity="0" />
    </linearGradient>
    <linearGradient id="paint4_linear" x1="794.192" y1="194.052" x2="794.192" y2="1042.54" gradientUnits="userSpaceOnUse">
      <stop stop-color="white" />
      <stop offset="1" stop-color="white" stop-opacity="0" />
    </linearGradient>
    <linearGradient id="paint5_linear" x1="794.192" y1="194.052" x2="794.192" y2="1042.54" gradientUnits="userSpaceOnUse">
      <stop stop-color="white" />
      <stop offset="1" stop-color="white" stop-opacity="0" />
    </linearGradient>
    <linearGradient id="paint6_linear" x1="794.192" y1="194.052" x2="794.192" y2="1042.54" gradientUnits="userSpaceOnUse">
      <stop stop-color="white" />
      <stop offset="1" stop-color="white" stop-opacity="0" />
    </linearGradient>
    <linearGradient id="paint7_linear" x1="794.192" y1="194.052" x2="794.192" y2="1042.54" gradientUnits="userSpaceOnUse">
      <stop stop-color="white" />
      <stop offset="1" stop-color="white" stop-opacity="0" />
    </linearGradient>
    <linearGradient id="paint8_linear" x1="794.192" y1="194.052" x2="794.192" y2="1042.54" gradientUnits="userSpaceOnUse">
      <stop stop-color="white" />
      <stop offset="1" stop-color="white" stop-opacity="0" />
    </linearGradient>
    <linearGradient id="paint9_linear" x1="794.192" y1="194.052" x2="794.192" y2="1042.54" gradientUnits="userSpaceOnUse">
      <stop stop-color="white" />
      <stop offset="1" stop-color="white" stop-opacity="0" />
    </linearGradient>
    <linearGradient id="paint10_linear" x1="794.192" y1="194.052" x2="794.192" y2="1042.54" gradientUnits="userSpaceOnUse">
      <stop stop-color="white" />
      <stop offset="1" stop-color="white" stop-opacity="0" />
    </linearGradient>
    <linearGradient id="paint11_linear" x1="794.192" y1="194.052" x2="794.192" y2="1042.54" gradientUnits="userSpaceOnUse">
      <stop stop-color="white" />
      <stop offset="1" stop-color="white" stop-opacity="0" />
    </linearGradient>
    <linearGradient id="paint12_linear" x1="794.192" y1="194.052" x2="794.192" y2="1042.54" gradientUnits="userSpaceOnUse">
      <stop stop-color="white" />
      <stop offset="1" stop-color="white" stop-opacity="0" />
    </linearGradient>
    <linearGradient id="paint13_linear" x1="794.192" y1="194.052" x2="794.192" y2="1042.54" gradientUnits="userSpaceOnUse">
      <stop stop-color="white" />
      <stop offset="1" stop-color="white" stop-opacity="0" />
    </linearGradient>
    <linearGradient id="paint14_linear" x1="794.192" y1="194.052" x2="794.192" y2="1042.54" gradientUnits="userSpaceOnUse">
      <stop stop-color="white" />
      <stop offset="1" stop-color="white" stop-opacity="0" />
    </linearGradient>
    <linearGradient id="paint15_linear" x1="794.192" y1="194.052" x2="794.192" y2="1042.54" gradientUnits="userSpaceOnUse">
      <stop stop-color="white" />
      <stop offset="1" stop-color="white" stop-opacity="0" />
    </linearGradient>
    <linearGradient id="paint16_linear" x1="794.192" y1="194.052" x2="794.192" y2="1042.54" gradientUnits="userSpaceOnUse">
      <stop stop-color="white" />
      <stop offset="1" stop-color="white" stop-opacity="0" />
    </linearGradient>
    <linearGradient id="paint17_linear" x1="794.192" y1="194.052" x2="794.192" y2="1042.54" gradientUnits="userSpaceOnUse">
      <stop stop-color="white" />
      <stop offset="1" stop-color="white" stop-opacity="0" />
    </linearGradient>
    <linearGradient id="paint18_linear" x1="794.192" y1="194.052" x2="794.192" y2="1042.54" gradientUnits="userSpaceOnUse">
      <stop stop-color="white" />
      <stop offset="1" stop-color="white" stop-opacity="0" />
    </linearGradient>
    <linearGradient id="paint19_linear" x1="794.192" y1="194.052" x2="794.192" y2="1042.54" gradientUnits="userSpaceOnUse">
      <stop stop-color="white" />
      <stop offset="1" stop-color="white" stop-opacity="0" />
    </linearGradient>
    <linearGradient id="paint20_linear" x1="794.192" y1="194.052" x2="794.192" y2="1042.54" gradientUnits="userSpaceOnUse">
      <stop stop-color="white" />
      <stop offset="1" stop-color="white" stop-opacity="0" />
    </linearGradient>
    <linearGradient id="paint21_linear" x1="794.192" y1="194.052" x2="794.192" y2="1042.54" gradientUnits="userSpaceOnUse">
      <stop stop-color="white" />
      <stop offset="1" stop-color="white" stop-opacity="0" />
    </linearGradient>
    <linearGradient id="paint22_linear" x1="794.192" y1="194.052" x2="794.192" y2="1042.54" gradientUnits="userSpaceOnUse">
      <stop stop-color="white" />
      <stop offset="1" stop-color="white" stop-opacity="0" />
    </linearGradient>
    <linearGradient id="paint23_linear" x1="794.192" y1="194.052" x2="794.192" y2="1042.54" gradientUnits="userSpaceOnUse">
      <stop stop-color="white" />
      <stop offset="1" stop-color="white" stop-opacity="0" />
    </linearGradient>
    <linearGradient id="paint24_linear" x1="794.192" y1="194.052" x2="794.192" y2="1042.54" gradientUnits="userSpaceOnUse">
      <stop stop-color="white" />
      <stop offset="1" stop-color="white" stop-opacity="0" />
    </linearGradient>
    <linearGradient id="paint25_linear" x1="794.192" y1="194.052" x2="794.192" y2="1042.54" gradientUnits="userSpaceOnUse">
      <stop stop-color="white" />
      <stop offset="1" stop-color="white" stop-opacity="0" />
    </linearGradient>
    <linearGradient id="paint26_linear" x1="794.192" y1="194.052" x2="794.192" y2="1042.54" gradientUnits="userSpaceOnUse">
      <stop stop-color="white" />
      <stop offset="1" stop-color="white" stop-opacity="0" />
    </linearGradient>
    <linearGradient id="paint27_linear" x1="794.192" y1="194.052" x2="794.192" y2="1042.54" gradientUnits="userSpaceOnUse">
      <stop stop-color="white" />
      <stop offset="1" stop-color="white" stop-opacity="0" />
    </linearGradient>
    <linearGradient id="paint28_linear" x1="794.192" y1="194.052" x2="794.192" y2="1042.54" gradientUnits="userSpaceOnUse">
      <stop stop-color="white" />
      <stop offset="1" stop-color="white" stop-opacity="0" />
    </linearGradient>
    <linearGradient id="paint29_linear" x1="794.192" y1="194.052" x2="794.192" y2="1042.54" gradientUnits="userSpaceOnUse">
      <stop stop-color="white" />
      <stop offset="1" stop-color="white" stop-opacity="0" />
    </linearGradient>
    <linearGradient id="paint30_linear" x1="794.192" y1="194.052" x2="794.192" y2="1042.54" gradientUnits="userSpaceOnUse">
      <stop stop-color="white" />
      <stop offset="1" stop-color="white" stop-opacity="0" />
    </linearGradient>
    <linearGradient id="paint31_linear" x1="794.192" y1="194.052" x2="794.192" y2="1042.54" gradientUnits="userSpaceOnUse">
      <stop stop-color="white" />
      <stop offset="1" stop-color="white" stop-opacity="0" />
    </linearGradient>
    <linearGradient id="paint32_linear" x1="794.192" y1="194.052" x2="794.192" y2="1042.54" gradientUnits="userSpaceOnUse">
      <stop stop-color="white" />
      <stop offset="1" stop-color="white" stop-opacity="0" />
    </linearGradient>
    <linearGradient id="paint33_linear" x1="794.192" y1="194.052" x2="794.192" y2="1042.54" gradientUnits="userSpaceOnUse">
      <stop stop-color="white" />
      <stop offset="1" stop-color="white" stop-opacity="0" />
    </linearGradient>
    <linearGradient id="paint34_linear" x1="794.192" y1="194.052" x2="794.192" y2="1042.54" gradientUnits="userSpaceOnUse">
      <stop stop-color="white" />
      <stop offset="1" stop-color="white" stop-opacity="0" />
    </linearGradient>
    <linearGradient id="paint35_linear" x1="794.192" y1="194.052" x2="794.192" y2="1042.54" gradientUnits="userSpaceOnUse">
      <stop stop-color="white" />
      <stop offset="1" stop-color="white" stop-opacity="0" />
    </linearGradient>
    <linearGradient id="paint36_linear" x1="794.192" y1="194.052" x2="794.192" y2="1042.54" gradientUnits="userSpaceOnUse">
      <stop stop-color="white" />
      <stop offset="1" stop-color="white" stop-opacity="0" />
    </linearGradient>
    <linearGradient id="paint37_linear" x1="794.192" y1="194.052" x2="794.192" y2="1042.54" gradientUnits="userSpaceOnUse">
      <stop stop-color="white" />
      <stop offset="1" stop-color="white" stop-opacity="0" />
    </linearGradient>
    <linearGradient id="paint38_linear" x1="794.192" y1="194.052" x2="794.192" y2="1042.54" gradientUnits="userSpaceOnUse">
      <stop stop-color="white" />
      <stop offset="1" stop-color="white" stop-opacity="0" />
    </linearGradient>
    <linearGradient id="paint39_linear" x1="794.192" y1="194.052" x2="794.192" y2="1042.54" gradientUnits="userSpaceOnUse">
      <stop stop-color="white" />
      <stop offset="1" stop-color="white" stop-opacity="0" />
    </linearGradient>
    <linearGradient id="paint40_linear" x1="794.192" y1="194.052" x2="794.192" y2="1042.54" gradientUnits="userSpaceOnUse">
      <stop stop-color="white" />
      <stop offset="1" stop-color="white" stop-opacity="0" />
    </linearGradient>
    <linearGradient id="paint41_linear" x1="794.192" y1="194.052" x2="794.192" y2="1042.54" gradientUnits="userSpaceOnUse">
      <stop stop-color="white" />
      <stop offset="1" stop-color="white" stop-opacity="0" />
    </linearGradient>
    <linearGradient id="paint42_linear" x1="794.192" y1="194.052" x2="794.192" y2="1042.54" gradientUnits="userSpaceOnUse">
      <stop stop-color="white" />
      <stop offset="1" stop-color="white" stop-opacity="0" />
    </linearGradient>
    <linearGradient id="paint43_linear" x1="794.192" y1="194.052" x2="794.192" y2="1042.54" gradientUnits="userSpaceOnUse">
      <stop stop-color="white" />
      <stop offset="1" stop-color="white" stop-opacity="0" />
    </linearGradient>
    <linearGradient id="paint44_linear" x1="794.192" y1="194.052" x2="794.192" y2="1042.54" gradientUnits="userSpaceOnUse">
      <stop stop-color="white" />
      <stop offset="1" stop-color="white" stop-opacity="0" />
    </linearGradient>
    <linearGradient id="paint45_linear" x1="794.192" y1="194.052" x2="794.192" y2="1042.54" gradientUnits="userSpaceOnUse">
      <stop stop-color="white" />
      <stop offset="1" stop-color="white" stop-opacity="0" />
    </linearGradient>
    <linearGradient id="paint46_linear" x1="794.192" y1="194.052" x2="794.192" y2="1042.54" gradientUnits="userSpaceOnUse">
      <stop stop-color="white" />
      <stop offset="1" stop-color="white" stop-opacity="0" />
    </linearGradient>
    <linearGradient id="paint47_linear" x1="794.192" y1="194.052" x2="794.192" y2="1042.54" gradientUnits="userSpaceOnUse">
      <stop stop-color="white" />
      <stop offset="1" stop-color="white" stop-opacity="0" />
    </linearGradient>
    <linearGradient id="paint48_linear" x1="794.192" y1="194.052" x2="794.192" y2="1042.54" gradientUnits="userSpaceOnUse">
      <stop stop-color="white" />
      <stop offset="1" stop-color="white" stop-opacity="0" />
    </linearGradient>
    <linearGradient id="paint49_linear" x1="794.192" y1="194.052" x2="794.192" y2="1042.54" gradientUnits="userSpaceOnUse">
      <stop stop-color="white" />
      <stop offset="1" stop-color="white" stop-opacity="0" />
    </linearGradient>
    <linearGradient id="paint50_linear" x1="794.192" y1="194.052" x2="794.192" y2="1042.54" gradientUnits="userSpaceOnUse">
      <stop stop-color="white" />
      <stop offset="1" stop-color="white" stop-opacity="0" />
    </linearGradient>
    <linearGradient id="paint51_linear" x1="794.192" y1="194.052" x2="794.192" y2="1042.54" gradientUnits="userSpaceOnUse">
      <stop stop-color="white" />
      <stop offset="1" stop-color="white" stop-opacity="0" />
    </linearGradient>
    <linearGradient id="paint52_linear" x1="794.192" y1="194.052" x2="794.192" y2="1042.54" gradientUnits="userSpaceOnUse">
      <stop stop-color="white" />
      <stop offset="1" stop-color="white" stop-opacity="0" />
    </linearGradient>
    <linearGradient id="paint53_linear" x1="794.192" y1="194.052" x2="794.192" y2="1042.54" gradientUnits="userSpaceOnUse">
      <stop stop-color="white" />
      <stop offset="1" stop-color="white" stop-opacity="0" />
    </linearGradient>
    <linearGradient id="paint54_linear" x1="794.192" y1="194.052" x2="794.192" y2="1042.54" gradientUnits="userSpaceOnUse">
      <stop stop-color="white" />
      <stop offset="1" stop-color="white" stop-opacity="0" />
    </linearGradient>
    <linearGradient id="paint55_linear" x1="794.192" y1="194.052" x2="794.192" y2="1042.54" gradientUnits="userSpaceOnUse">
      <stop stop-color="white" />
      <stop offset="1" stop-color="white" stop-opacity="0" />
    </linearGradient>
    <linearGradient id="paint56_linear" x1="794.192" y1="194.052" x2="794.192" y2="1042.54" gradientUnits="userSpaceOnUse">
      <stop stop-color="white" />
      <stop offset="1" stop-color="white" stop-opacity="0" />
    </linearGradient>
    <linearGradient id="paint57_linear" x1="794.192" y1="194.052" x2="794.192" y2="1042.54" gradientUnits="userSpaceOnUse">
      <stop stop-color="white" />
      <stop offset="1" stop-color="white" stop-opacity="0" />
    </linearGradient>
    <linearGradient id="paint58_linear" x1="794.192" y1="194.052" x2="794.192" y2="1042.54" gradientUnits="userSpaceOnUse">
      <stop stop-color="white" />
      <stop offset="1" stop-color="white" stop-opacity="0" />
    </linearGradient>
    <linearGradient id="paint59_linear" x1="794.192" y1="194.052" x2="794.192" y2="1042.54" gradientUnits="userSpaceOnUse">
      <stop stop-color="white" />
      <stop offset="1" stop-color="white" stop-opacity="0" />
    </linearGradient>
    <linearGradient id="paint60_linear" x1="794.192" y1="194.052" x2="794.192" y2="1042.54" gradientUnits="userSpaceOnUse">
      <stop stop-color="white" />
      <stop offset="1" stop-color="white" stop-opacity="0" />
    </linearGradient>
    <linearGradient id="paint61_linear" x1="794.192" y1="194.052" x2="794.192" y2="1042.54" gradientUnits="userSpaceOnUse">
      <stop stop-color="white" />
      <stop offset="1" stop-color="white" stop-opacity="0" />
    </linearGradient>
    <linearGradient id="paint62_linear" x1="794.192" y1="194.052" x2="794.192" y2="1042.54" gradientUnits="userSpaceOnUse">
      <stop stop-color="white" />
      <stop offset="1" stop-color="white" stop-opacity="0" />
    </linearGradient>
    <linearGradient id="paint63_linear" x1="794.192" y1="194.052" x2="794.192" y2="1042.54" gradientUnits="userSpaceOnUse">
      <stop stop-color="white" />
      <stop offset="1" stop-color="white" stop-opacity="0" />
    </linearGradient>
    <linearGradient id="paint64_linear" x1="794.192" y1="194.052" x2="794.192" y2="1042.54" gradientUnits="userSpaceOnUse">
      <stop stop-color="white" />
      <stop offset="1" stop-color="white" stop-opacity="0" />
    </linearGradient>
    <linearGradient id="paint65_linear" x1="794.192" y1="194.052" x2="794.192" y2="1042.54" gradientUnits="userSpaceOnUse">
      <stop stop-color="white" />
      <stop offset="1" stop-color="white" stop-opacity="0" />
    </linearGradient>
    <linearGradient id="paint66_linear" x1="794.192" y1="194.052" x2="794.192" y2="1042.54" gradientUnits="userSpaceOnUse">
      <stop stop-color="white" />
      <stop offset="1" stop-color="white" stop-opacity="0" />
    </linearGradient>
    <linearGradient id="paint67_linear" x1="794.192" y1="194.052" x2="794.192" y2="1042.54" gradientUnits="userSpaceOnUse">
      <stop stop-color="white" />
      <stop offset="1" stop-color="white" stop-opacity="0" />
    </linearGradient>
    <linearGradient id="paint68_linear" x1="794.192" y1="194.052" x2="794.192" y2="1042.54" gradientUnits="userSpaceOnUse">
      <stop stop-color="white" />
      <stop offset="1" stop-color="white" stop-opacity="0" />
    </linearGradient>
    <linearGradient id="paint69_linear" x1="794.192" y1="194.052" x2="794.192" y2="1042.54" gradientUnits="userSpaceOnUse">
      <stop stop-color="white" />
      <stop offset="1" stop-color="white" stop-opacity="0" />
    </linearGradient>
    <linearGradient id="paint70_linear" x1="794.192" y1="194.052" x2="794.192" y2="1042.54" gradientUnits="userSpaceOnUse">
      <stop stop-color="white" />
      <stop offset="1" stop-color="white" stop-opacity="0" />
    </linearGradient>
    <linearGradient id="paint71_linear" x1="794.192" y1="194.052" x2="794.192" y2="1042.54" gradientUnits="userSpaceOnUse">
      <stop stop-color="white" />
      <stop offset="1" stop-color="white" stop-opacity="0" />
    </linearGradient>
    <linearGradient id="paint72_linear" x1="794.192" y1="194.052" x2="794.192" y2="1042.54" gradientUnits="userSpaceOnUse">
      <stop stop-color="white" />
      <stop offset="1" stop-color="white" stop-opacity="0" />
    </linearGradient>
    <linearGradient id="paint73_linear" x1="794.192" y1="194.052" x2="794.192" y2="1042.54" gradientUnits="userSpaceOnUse">
      <stop stop-color="white" />
      <stop offset="1" stop-color="white" stop-opacity="0" />
    </linearGradient>
    <linearGradient id="paint74_linear" x1="794.192" y1="194.052" x2="794.192" y2="1042.54" gradientUnits="userSpaceOnUse">
      <stop stop-color="white" />
      <stop offset="1" stop-color="white" stop-opacity="0" />
    </linearGradient>
    <linearGradient id="paint75_linear" x1="794.192" y1="194.052" x2="794.192" y2="1042.54" gradientUnits="userSpaceOnUse">
      <stop stop-color="white" />
      <stop offset="1" stop-color="white" stop-opacity="0" />
    </linearGradient>
    <linearGradient id="paint76_linear" x1="794.192" y1="194.052" x2="794.192" y2="1042.54" gradientUnits="userSpaceOnUse">
      <stop stop-color="white" />
      <stop offset="1" stop-color="white" stop-opacity="0" />
    </linearGradient>
    <linearGradient id="paint77_linear" x1="794.192" y1="194.052" x2="794.192" y2="1042.54" gradientUnits="userSpaceOnUse">
      <stop stop-color="white" />
      <stop offset="1" stop-color="white" stop-opacity="0" />
    </linearGradient>
    <linearGradient id="paint78_linear" x1="794.192" y1="194.052" x2="794.192" y2="1042.54" gradientUnits="userSpaceOnUse">
      <stop stop-color="white" />
      <stop offset="1" stop-color="white" stop-opacity="0" />
    </linearGradient>
    <linearGradient id="paint79_linear" x1="794.192" y1="194.052" x2="794.192" y2="1042.54" gradientUnits="userSpaceOnUse">
      <stop stop-color="white" />
      <stop offset="1" stop-color="white" stop-opacity="0" />
    </linearGradient>
    <linearGradient id="paint80_linear" x1="794.192" y1="194.052" x2="794.192" y2="1042.54" gradientUnits="userSpaceOnUse">
      <stop stop-color="white" />
      <stop offset="1" stop-color="white" stop-opacity="0" />
    </linearGradient>
    <linearGradient id="paint81_linear" x1="794.192" y1="194.052" x2="794.192" y2="1042.54" gradientUnits="userSpaceOnUse">
      <stop stop-color="white" />
      <stop offset="1" stop-color="white" stop-opacity="0" />
    </linearGradient>
    <linearGradient id="paint82_linear" x1="794.192" y1="194.052" x2="794.192" y2="1042.54" gradientUnits="userSpaceOnUse">
      <stop stop-color="white" />
      <stop offset="1" stop-color="white" stop-opacity="0" />
    </linearGradient>
    <linearGradient id="paint83_linear" x1="794.192" y1="194.052" x2="794.192" y2="1042.54" gradientUnits="userSpaceOnUse">
      <stop stop-color="white" />
      <stop offset="1" stop-color="white" stop-opacity="0" />
    </linearGradient>
    <linearGradient id="paint84_linear" x1="794.192" y1="194.052" x2="794.192" y2="1042.54" gradientUnits="userSpaceOnUse">
      <stop stop-color="white" />
      <stop offset="1" stop-color="white" stop-opacity="0" />
    </linearGradient>
  </defs>
</svg>
