<svg width="431" height="106" viewBox="0 0 431 106" fill="none" xmlns="http://www.w3.org/2000/svg">
<path d="M13.2207 12.7812V27H10.9648V24.6895H10.9102C10.026 26.3939 8.52214 27.2461 6.39844 27.2461C4.85807 27.2461 3.65039 26.7812 2.77539 25.8516C1.90951 24.9128 1.47656 23.6322 1.47656 22.0098V12.7812H3.85547V21.5859C3.85547 23.9557 4.94922 25.1406 7.13672 25.1406C8.28516 25.1406 9.1875 24.7806 9.84375 24.0605C10.5091 23.3314 10.8418 22.3561 10.8418 21.1348V12.7812H13.2207ZM16.3105 27V12.7812H18.5527V15.0508H18.6074C18.9538 14.276 19.4779 13.6654 20.1797 13.2188C20.8815 12.763 21.7018 12.5352 22.6406 12.5352C23.6068 12.5352 24.4362 12.7721 25.1289 13.2461C25.8216 13.7109 26.3229 14.3763 26.6328 15.2422H26.6875C27.0794 14.3945 27.6673 13.7337 28.4512 13.2598C29.2441 12.7767 30.1419 12.5352 31.1445 12.5352C32.5482 12.5352 33.6693 12.959 34.5078 13.8066C35.3555 14.6452 35.7793 15.7708 35.7793 17.1836V27H33.4004V17.7305C33.4004 16.7552 33.1406 15.9987 32.6211 15.4609C32.1107 14.9141 31.3861 14.6406 30.4473 14.6406C29.5085 14.6406 28.7383 14.9551 28.1367 15.584C27.5352 16.2038 27.2344 16.9967 27.2344 17.9629V27H24.8555V17.4707C24.8555 16.6139 24.5911 15.9303 24.0625 15.4199C23.5339 14.9004 22.8275 14.6406 21.9434 14.6406C21.0046 14.6406 20.2253 14.9688 19.6055 15.625C18.9948 16.2812 18.6895 17.1016 18.6895 18.0859V27H16.3105ZM45.7188 12.5352C47.5417 12.5352 49.0091 13.2051 50.1211 14.5449C51.2422 15.8848 51.8027 17.6667 51.8027 19.8906C51.8027 22.1055 51.2467 23.8874 50.1348 25.2363C49.0228 26.5762 47.569 27.2461 45.7734 27.2461C44.7708 27.2461 43.873 27.0182 43.0801 26.5625C42.2871 26.1068 41.6764 25.4824 41.248 24.6895H41.1934V31.7441H38.8145V12.7812H41.0703V15.1875H41.125C41.5716 14.3672 42.196 13.7201 42.998 13.2461C43.8001 12.7721 44.707 12.5352 45.7188 12.5352ZM45.2539 25.1543C46.5208 25.1543 47.5234 24.6803 48.2617 23.7324C49 22.7845 49.3691 21.5039 49.3691 19.8906C49.3691 18.2773 49 16.9967 48.2617 16.0488C47.5234 15.1009 46.5208 14.627 45.2539 14.627C44.0326 14.627 43.0482 15.11 42.3008 16.0762C41.5534 17.0423 41.1797 18.3138 41.1797 19.8906C41.1797 21.4766 41.5534 22.7526 42.3008 23.7188C43.0482 24.6758 44.0326 25.1543 45.2539 25.1543ZM60.1016 27.2461C58.1146 27.2461 56.5195 26.5853 55.3164 25.2637C54.1133 23.9329 53.5117 22.1419 53.5117 19.8906C53.5117 17.6393 54.1133 15.8529 55.3164 14.5312C56.5195 13.2005 58.1146 12.5352 60.1016 12.5352C62.0794 12.5352 63.6699 13.2005 64.873 14.5312C66.0762 15.8529 66.6777 17.6393 66.6777 19.8906C66.6777 22.1328 66.0762 23.9193 64.873 25.25C63.6699 26.5807 62.0794 27.2461 60.1016 27.2461ZM57.0527 23.7598C57.8092 24.6895 58.8255 25.1543 60.1016 25.1543C61.3776 25.1543 62.3893 24.694 63.1367 23.7734C63.8841 22.8438 64.2578 21.5495 64.2578 19.8906C64.2578 18.2318 63.8841 16.9421 63.1367 16.0215C62.3893 15.0918 61.3776 14.627 60.1016 14.627C58.8255 14.627 57.8092 15.0918 57.0527 16.0215C56.3053 16.9512 55.9316 18.2409 55.9316 19.8906C55.9316 21.5404 56.3053 22.8301 57.0527 23.7598ZM69.084 27V12.7812H71.3262V15.0508H71.3809C71.791 14.2578 72.3789 13.6426 73.1445 13.2051C73.9102 12.7585 74.8262 12.5352 75.8926 12.5352C77.4421 12.5352 78.6497 13.0046 79.5156 13.9434C80.3815 14.873 80.8145 16.1491 80.8145 17.7715V27H78.4355V18.1953C78.4355 17.0378 78.1621 16.1582 77.6152 15.5566C77.0684 14.946 76.2526 14.6406 75.168 14.6406C74.0469 14.6406 73.1491 15.0052 72.4746 15.7344C71.8001 16.4635 71.4629 17.4297 71.4629 18.6328V27H69.084ZM84.6152 9.34961H86.9941V12.7812H89.7559V14.7363H86.9941V23.1855C86.9941 23.8327 87.1354 24.3112 87.418 24.6211C87.7005 24.9219 88.1471 25.0723 88.7578 25.0723C89.1406 25.0723 89.4688 25.0495 89.7422 25.0039V27C89.4323 27.0729 88.931 27.1094 88.2383 27.1094C86.9349 27.1094 86.0052 26.8177 85.4492 26.2344C84.8932 25.651 84.6152 24.6758 84.6152 23.3086V14.7363H82.4961V12.7812H84.6152V9.34961ZM97.7812 27.2461C95.7943 27.2461 94.1992 26.5853 92.9961 25.2637C91.793 23.9329 91.1914 22.1419 91.1914 19.8906C91.1914 17.6393 91.793 15.8529 92.9961 14.5312C94.1992 13.2005 95.7943 12.5352 97.7812 12.5352C99.7591 12.5352 101.35 13.2005 102.553 14.5312C103.756 15.8529 104.357 17.6393 104.357 19.8906C104.357 22.1328 103.756 23.9193 102.553 25.25C101.35 26.5807 99.7591 27.2461 97.7812 27.2461ZM94.7324 23.7598C95.4889 24.6895 96.5052 25.1543 97.7812 25.1543C99.0573 25.1543 100.069 24.694 100.816 23.7734C101.564 22.8438 101.938 21.5495 101.938 19.8906C101.938 18.2318 101.564 16.9421 100.816 16.0215C100.069 15.0918 99.0573 14.627 97.7812 14.627C96.5052 14.627 95.4889 15.0918 94.7324 16.0215C93.985 16.9512 93.6113 18.2409 93.6113 19.8906C93.6113 21.5404 93.985 22.8301 94.7324 23.7598ZM106.518 16.7051C106.518 15.4837 107.01 14.4857 107.994 13.7109C108.988 12.9271 110.264 12.5352 111.822 12.5352C113.29 12.5352 114.511 12.9271 115.486 13.7109C116.462 14.4948 116.977 15.4883 117.031 16.6914H114.762C114.68 15.9987 114.37 15.4564 113.832 15.0645C113.303 14.6725 112.606 14.4766 111.74 14.4766C110.874 14.4766 110.177 14.6725 109.648 15.0645C109.12 15.4473 108.855 15.9531 108.855 16.582C108.855 17.5482 109.644 18.2318 111.221 18.6328L113.422 19.166C114.853 19.5306 115.86 20.0046 116.443 20.5879C117.036 21.1621 117.332 21.9733 117.332 23.0215C117.332 24.2611 116.803 25.2773 115.746 26.0703C114.689 26.8542 113.331 27.2461 111.672 27.2461C110.122 27.2461 108.842 26.8633 107.83 26.0977C106.827 25.3229 106.262 24.3021 106.135 23.0352H108.514C108.778 24.5482 109.881 25.3047 111.822 25.3047C112.779 25.3047 113.536 25.1178 114.092 24.7441C114.657 24.3613 114.939 23.8464 114.939 23.1992C114.939 22.6888 114.771 22.2832 114.434 21.9824C114.105 21.6816 113.545 21.4264 112.752 21.2168L110.25 20.5742C107.762 19.9362 106.518 18.6465 106.518 16.7051ZM125.508 14.5996C124.405 14.5996 123.489 14.9824 122.76 15.748C122.04 16.5046 121.643 17.4798 121.57 18.6738H129.295C129.268 17.4707 128.908 16.4909 128.215 15.7344C127.522 14.9779 126.62 14.5996 125.508 14.5996ZM129.24 22.9258H131.578C131.368 24.1836 130.712 25.2181 129.609 26.0293C128.516 26.8405 127.199 27.2461 125.658 27.2461C123.626 27.2461 122.026 26.5898 120.859 25.2773C119.693 23.9648 119.109 22.1875 119.109 19.9453C119.109 17.7214 119.693 15.9303 120.859 14.5723C122.035 13.2142 123.598 12.5352 125.549 12.5352C127.463 12.5352 128.976 13.1777 130.088 14.4629C131.2 15.748 131.756 17.4707 131.756 19.6309V20.5332H121.557V20.6699C121.557 22.0371 121.93 23.1309 122.678 23.9512C123.425 24.7715 124.437 25.1816 125.713 25.1816C126.606 25.1816 127.367 24.9766 127.996 24.5664C128.625 24.1562 129.04 23.6094 129.24 22.9258ZM134.285 27V12.7812H136.664V27H134.285ZM135.475 10.3887C135.074 10.3887 134.727 10.2428 134.436 9.95117C134.144 9.65951 133.998 9.31315 133.998 8.91211C133.998 8.50195 134.144 8.1556 134.436 7.87305C134.727 7.58138 135.074 7.43555 135.475 7.43555C135.885 7.43555 136.236 7.58138 136.527 7.87305C136.819 8.1556 136.965 8.50195 136.965 8.91211C136.965 9.31315 136.819 9.65951 136.527 9.95117C136.236 10.2428 135.885 10.3887 135.475 10.3887ZM139.631 16.7051C139.631 15.4837 140.123 14.4857 141.107 13.7109C142.101 12.9271 143.377 12.5352 144.936 12.5352C146.403 12.5352 147.624 12.9271 148.6 13.7109C149.575 14.4948 150.09 15.4883 150.145 16.6914H147.875C147.793 15.9987 147.483 15.4564 146.945 15.0645C146.417 14.6725 145.719 14.4766 144.854 14.4766C143.988 14.4766 143.29 14.6725 142.762 15.0645C142.233 15.4473 141.969 15.9531 141.969 16.582C141.969 17.5482 142.757 18.2318 144.334 18.6328L146.535 19.166C147.966 19.5306 148.973 20.0046 149.557 20.5879C150.149 21.1621 150.445 21.9733 150.445 23.0215C150.445 24.2611 149.917 25.2773 148.859 26.0703C147.802 26.8542 146.444 27.2461 144.785 27.2461C143.236 27.2461 141.955 26.8633 140.943 26.0977C139.941 25.3229 139.376 24.3021 139.248 23.0352H141.627C141.891 24.5482 142.994 25.3047 144.936 25.3047C145.893 25.3047 146.649 25.1178 147.205 24.7441C147.77 24.3613 148.053 23.8464 148.053 23.1992C148.053 22.6888 147.884 22.2832 147.547 21.9824C147.219 21.6816 146.658 21.4264 145.865 21.2168L143.363 20.5742C140.875 19.9362 139.631 18.6465 139.631 16.7051Z" fill="#5D4FF4"/>
<path d="M1.75781 78.5488H13.5059C13.6816 79.7207 14.4043 80.6777 15.6738 81.4199C16.9434 82.1621 18.4277 82.5332 20.127 82.5332C21.9629 82.5332 23.418 82.2012 24.4922 81.5371C25.5859 80.873 26.1328 80.0234 26.1328 78.9883C26.1328 78.0117 25.6934 77.2695 24.8145 76.7617C23.9355 76.2344 22.3438 75.7656 20.0391 75.3555L14.4434 74.3594C10.5762 73.6953 7.60742 72.2891 5.53711 70.1406C3.48633 67.9922 2.46094 65.2578 2.46094 61.9375C2.46094 57.7188 4.08203 54.3398 7.32422 51.8008C10.5664 49.2617 14.7461 47.9922 19.8633 47.9922C25.4297 47.9922 29.7461 49.1836 32.8125 51.5664C35.8789 53.9492 37.4316 57.2109 37.4707 61.3516H26.1328C26.0938 60.0625 25.5078 59.0469 24.375 58.3047C23.2422 57.543 21.8164 57.1621 20.0977 57.1621C18.4766 57.1621 17.1875 57.4746 16.2305 58.0996C15.2734 58.7246 14.7949 59.5645 14.7949 60.6191C14.7949 61.6152 15.2441 62.4062 16.1426 62.9922C17.041 63.5781 18.5059 64.0469 20.5371 64.3984L26.3379 65.3945C30.4395 66.1172 33.4668 67.4746 35.4199 69.4668C37.3926 71.4395 38.3789 74.1445 38.3789 77.582C38.3789 81.8984 36.6992 85.3359 33.3398 87.8945C30 90.4531 25.5176 91.7324 19.8926 91.7324C14.1895 91.7324 9.74609 90.5898 6.5625 88.3047C3.37891 86 1.77734 82.748 1.75781 78.5488ZM58.5645 91.8203C53.252 91.8203 49.0918 90.3457 46.084 87.3965C43.0762 84.4277 41.5723 80.2285 41.5723 74.7988C41.5723 69.5059 43.0957 65.3555 46.1426 62.3477C49.209 59.3398 53.3496 57.8359 58.5645 57.8359C63.8184 57.8359 67.9688 59.3398 71.0156 62.3477C74.0625 65.3359 75.5859 69.4863 75.5859 74.7988C75.5859 80.2285 74.082 84.4277 71.0742 87.3965C68.0664 90.3457 63.8965 91.8203 58.5645 91.8203ZM58.5645 83.2363C60.0684 83.2363 61.25 82.5039 62.1094 81.0391C62.9688 79.5742 63.3984 77.5039 63.3984 74.8281C63.3984 72.2109 62.959 70.1602 62.0801 68.6758C61.2207 67.1719 60.0488 66.4199 58.5645 66.4199C57.0801 66.4199 55.9082 67.1719 55.0488 68.6758C54.1895 70.1602 53.7598 72.2109 53.7598 74.8281C53.7598 77.5234 54.1797 79.6035 55.0195 81.0684C55.8594 82.5137 57.041 83.2363 58.5645 83.2363ZM79.4531 91V48.7246H91.4648V91H79.4531ZM110.303 83.4414C111.689 83.4414 112.891 83.0898 113.906 82.3867C114.922 81.6641 115.43 80.7266 115.43 79.5742V77.4648L110.332 77.8164C109.199 77.8945 108.32 78.1875 107.695 78.6953C107.07 79.2031 106.758 79.8574 106.758 80.6582C106.758 81.5176 107.08 82.2012 107.725 82.709C108.369 83.1973 109.229 83.4414 110.303 83.4414ZM105.82 91.4688C102.812 91.4688 100.244 90.541 98.1152 88.6855C95.9863 86.8105 94.9219 84.4473 94.9219 81.5957C94.9219 78.5098 96.0645 76.127 98.3496 74.4473C100.654 72.748 103.984 71.7617 108.34 71.4883L115.43 71.0488V69.4668C115.43 68.4121 115.068 67.5918 114.346 67.0059C113.623 66.4199 112.686 66.127 111.533 66.127C110.342 66.127 109.365 66.4102 108.604 66.9766C107.842 67.543 107.412 68.2559 107.314 69.1152H96.5918C96.748 65.6387 98.2129 62.8945 100.986 60.8828C103.76 58.8516 107.49 57.8359 112.178 57.8359C116.65 57.8359 120.264 58.8613 123.018 60.9121C125.771 62.9434 127.148 65.5996 127.148 68.8809V91H115.43V86.6641H115.195C114.375 88.1875 113.096 89.3691 111.357 90.209C109.639 91.0488 107.793 91.4688 105.82 91.4688ZM131.689 91V58.6562H143.408V65.0137H143.643C144.854 60.4629 147.373 58.1875 151.201 58.1875C152.236 58.1875 153.174 58.3438 154.014 58.6562V68.7344C152.959 68.2852 151.797 68.0605 150.527 68.0605C145.977 68.0605 143.701 70.3359 143.701 74.8867V91H131.689ZM167.812 78.5488H179.561C179.736 79.7207 180.459 80.6777 181.729 81.4199C182.998 82.1621 184.482 82.5332 186.182 82.5332C188.018 82.5332 189.473 82.2012 190.547 81.5371C191.641 80.873 192.188 80.0234 192.188 78.9883C192.188 78.0117 191.748 77.2695 190.869 76.7617C189.99 76.2344 188.398 75.7656 186.094 75.3555L180.498 74.3594C176.631 73.6953 173.662 72.2891 171.592 70.1406C169.541 67.9922 168.516 65.2578 168.516 61.9375C168.516 57.7188 170.137 54.3398 173.379 51.8008C176.621 49.2617 180.801 47.9922 185.918 47.9922C191.484 47.9922 195.801 49.1836 198.867 51.5664C201.934 53.9492 203.486 57.2109 203.525 61.3516H192.188C192.148 60.0625 191.562 59.0469 190.43 58.3047C189.297 57.543 187.871 57.1621 186.152 57.1621C184.531 57.1621 183.242 57.4746 182.285 58.0996C181.328 58.7246 180.85 59.5645 180.85 60.6191C180.85 61.6152 181.299 62.4062 182.197 62.9922C183.096 63.5781 184.561 64.0469 186.592 64.3984L192.393 65.3945C196.494 66.1172 199.521 67.4746 201.475 69.4668C203.447 71.4395 204.434 74.1445 204.434 77.582C204.434 81.8984 202.754 85.3359 199.395 87.8945C196.055 90.4531 191.572 91.7324 185.947 91.7324C180.244 91.7324 175.801 90.5898 172.617 88.3047C169.434 86 167.832 82.748 167.812 78.5488ZM213.955 102.865H209.678V93.9297H211.992C213.691 93.9297 214.932 93.7637 215.713 93.4316C216.514 93.1191 216.914 92.6016 216.914 91.8789C216.914 91.5859 216.865 91.293 216.768 91L206.162 58.6562H219.492L224.414 82.3867H224.648L229.541 58.6562H242.227L232.588 90.2383C231.221 94.7305 229.082 97.9531 226.172 99.9062C223.281 101.879 219.209 102.865 213.955 102.865ZM243.633 68.7051C243.633 65.3262 244.98 62.6699 247.676 60.7363C250.371 58.8027 254.072 57.8359 258.779 57.8359C263.506 57.8359 267.197 58.832 269.854 60.8242C272.529 62.8164 273.867 65.5801 273.867 69.1152H262.969C262.969 68.0605 262.578 67.2305 261.797 66.625C261.035 66 260 65.6875 258.691 65.6875C257.617 65.6875 256.748 65.8926 256.084 66.3027C255.439 66.6934 255.117 67.2305 255.117 67.9141C255.117 68.9297 256.162 69.6328 258.252 70.0234L265.547 71.459C268.75 72.084 271.094 73.1191 272.578 74.5645C274.082 75.9902 274.834 77.9336 274.834 80.3945C274.834 83.8906 273.389 86.6738 270.498 88.7441C267.627 90.7949 263.809 91.8203 259.043 91.8203C254.062 91.8203 250.176 90.8145 247.383 88.8027C244.609 86.7715 243.115 84.0078 242.9 80.5117H254.502C254.619 81.5859 255.088 82.4355 255.908 83.0605C256.748 83.666 257.842 83.9688 259.189 83.9688C260.361 83.9688 261.279 83.7832 261.943 83.4121C262.607 83.0215 262.939 82.4941 262.939 81.8301C262.939 81.3223 262.705 80.9121 262.236 80.5996C261.768 80.2676 260.986 80.0039 259.893 79.8086L253.652 78.5781C250.391 77.9336 247.9 76.7715 246.182 75.0918C244.482 73.3926 243.633 71.2637 243.633 68.7051ZM280.957 51.5664H292.969V58.6562H298.652V67.3574H292.969V79.3105C292.969 81.3613 294.18 82.3867 296.602 82.3867C297.383 82.3867 298.066 82.3379 298.652 82.2402V90.5605C297.227 90.8535 295.576 91 293.701 91C289.15 91 285.889 90.2969 283.916 88.8906C281.943 87.4844 280.957 85.1797 280.957 81.9766V67.3574H276.68V58.6562H280.957V51.5664ZM318.574 66.0977C317.207 66.0977 316.055 66.5469 315.117 67.4453C314.18 68.3438 313.652 69.4863 313.535 70.873H323.613C323.516 69.4277 322.998 68.2754 322.061 67.416C321.143 66.5371 319.98 66.0977 318.574 66.0977ZM323.965 80.5117H334.658C334.15 84.0078 332.471 86.7715 329.619 88.8027C326.768 90.8145 323.125 91.8203 318.691 91.8203C313.398 91.8203 309.258 90.3359 306.27 87.3672C303.281 84.3789 301.787 80.2578 301.787 75.0039C301.787 69.7109 303.271 65.5312 306.24 62.4648C309.209 59.3789 313.232 57.8359 318.311 57.8359C323.33 57.8359 327.334 59.3203 330.322 62.2891C333.311 65.2383 334.805 69.1836 334.805 74.125V77.377H313.359V78.1387C313.359 79.7207 313.877 81.0293 314.912 82.0645C315.947 83.0801 317.266 83.5879 318.867 83.5879C320.098 83.5879 321.162 83.3145 322.061 82.7676C322.979 82.2207 323.613 81.4688 323.965 80.5117ZM338.467 91V58.6562H350.186V65.1895H350.42C351.025 63.002 352.168 61.2637 353.848 59.9746C355.527 58.666 357.471 58.0117 359.678 58.0117C362.139 58.0117 364.15 58.6367 365.713 59.8867C367.295 61.1172 368.281 62.8652 368.672 65.1309H368.906C369.453 62.9824 370.625 61.2637 372.422 59.9746C374.238 58.666 376.377 58.0117 378.838 58.0117C381.982 58.0117 384.541 59.0469 386.514 61.1172C388.486 63.168 389.473 65.8438 389.473 69.1445V91H377.461V72.25C377.461 69.1836 376.152 67.6504 373.535 67.6504C372.324 67.6504 371.377 68.0605 370.693 68.8809C370.01 69.6816 369.668 70.7949 369.668 72.2207V91H358.271V72.2793C358.271 69.1934 356.973 67.6504 354.375 67.6504C353.164 67.6504 352.207 68.0605 351.504 68.8809C350.82 69.7012 350.479 70.8145 350.479 72.2207V91H338.467Z" fill="#17171B"/>
<path d="M407.21 66V52.5508H407.167L403.063 55.5049V53.4639L407.188 50.499H409.079V66H407.21ZM414.88 65.7529C414.644 65.9893 414.354 66.1074 414.01 66.1074C413.666 66.1074 413.376 65.9893 413.14 65.7529C412.903 65.5166 412.785 65.2266 412.785 64.8828C412.785 64.5391 412.903 64.249 413.14 64.0127C413.376 63.7764 413.666 63.6582 414.01 63.6582C414.354 63.6582 414.644 63.7764 414.88 64.0127C415.116 64.249 415.234 64.5391 415.234 64.8828C415.234 65.2266 415.116 65.5166 414.88 65.7529ZM423.484 66.2578C421.687 66.2578 420.283 65.5417 419.273 64.1094C418.271 62.6699 417.77 60.7148 417.77 58.2441C417.77 55.7949 418.274 53.8506 419.284 52.4111C420.301 50.9645 421.701 50.2412 423.484 50.2412C425.268 50.2412 426.66 50.9609 427.663 52.4004C428.673 53.8327 429.178 55.777 429.178 58.2334C429.178 60.7041 428.676 62.6592 427.674 64.0986C426.671 65.5381 425.275 66.2578 423.484 66.2578ZM420.702 62.874C421.361 64.0055 422.288 64.5713 423.484 64.5713C424.68 64.5713 425.604 64.0091 426.256 62.8848C426.908 61.7533 427.233 60.2064 427.233 58.2441C427.233 56.3105 426.904 54.778 426.245 53.6465C425.586 52.5078 424.666 51.9385 423.484 51.9385C422.303 51.9385 421.379 52.5078 420.713 53.6465C420.047 54.7852 419.714 56.3141 419.714 58.2334C419.714 60.1956 420.043 61.7425 420.702 62.874Z" fill="#5D4FF4"/>
</svg>
