<svg width="110" height="134" viewBox="0 0 110 134" fill="none" xmlns="http://www.w3.org/2000/svg">
<g clip-path="url(#clip0)">
<path d="M28 134C73.2873 134 110 97.2873 110 51.9999C110 6.71259 73.2873 -30.0001 28 -30.0001C-17.2874 -30.0001 -54 6.71259 -54 51.9999C-54 97.2873 -17.2874 134 28 134Z" fill="url(#paint0_linear)"/>
<g style="mix-blend-mode:multiply">
<path d="M-1.95822 49.7307C-1.85739 49.8313 -1.75656 49.9276 -1.65237 50.0196C-0.131466 51.106 1.58448 51.644 3.31832 51.5781C4.41756 51.8204 5.54737 51.5671 6.5212 50.8601C7.09055 50.1369 7.49308 49.2205 7.68316 48.2147C7.87323 47.2088 7.84328 46.1537 7.59669 45.1689C7.07819 43.2039 6.76391 41.1573 6.66233 39.0836C7.14666 35.9389 8.43144 33.0991 10.3088 31.0239C11.9717 28.8464 13.0262 26.0055 13.3034 22.9554C13.4042 20.4337 11.623 17.4698 12.2447 15.1014C12.6178 13.6873 13.9587 13.0394 14.7317 11.888C16.3046 9.53707 14.9603 5.78956 12.7959 4.27042C10.4824 3.04157 8.01122 2.39398 5.51289 2.3617C4.54335 2.37252 3.58438 2.09962 2.70662 1.56316C1.82886 1.02669 1.05479 0.240317 0.441486 -0.737893C0.179508 -1.58182 -0.140015 -2.39352 -0.513084 -3.16326C-1.807 -5.12894 -4.47885 -4.03886 -6.01475 -2.34461C-10.8846 3.00958 -18.2045 5.21607 -22.7113 -2.57661C-23.3331 -3.65357 -23.8977 -4.92752 -24.8522 -5.41347C-26.2469 -6.11831 -27.7258 -4.82682 -28.9054 -3.60101C-35.5901 3.34673 -42.268 6.21426 -44.4795 18.363C-45.3598 23.0106 -45.2867 27.878 -44.2677 32.4773C-43.4913 35.0393 -42.8634 37.6734 -42.3891 40.3575C-42.0933 42.9843 -42.426 45.7161 -41.9454 48.2991C-41.4648 50.8821 -39.6869 53.3994 -37.7376 52.8083C-34.9683 51.9634 -34.3331 46.7843 -31.9738 44.9718C-30.1086 43.5359 -24.9362 42.4239 -23.5717 45.3352C-23.1185 46.9454 -23.0115 48.6863 -23.2625 50.3698C-23.261 51.9067 -22.9545 53.417 -22.3727 54.7541C-21.7908 56.0911 -20.9535 57.2095 -19.942 58.0006C-19.2295 58.5347 -18.3826 58.9593 -18.013 59.9355C-17.8653 60.5134 -17.8251 61.1288 -17.8958 61.7309C-17.9665 62.333 -18.146 62.9045 -18.4195 63.3985C-20.0462 67.1985 -23.1919 68.49 -24.8522 72.0055C-27.5408 77.6967 -25.3799 85.3537 -22.1635 90.5591C-18.9472 95.7644 -14.7025 99.9847 -12.5011 106.048C-11.6643 109.157 -10.6429 112.177 -9.44615 115.08C-8.83415 116.496 -7.85873 117.587 -6.69106 118.16C-5.52338 118.733 -4.23805 118.752 -3.06058 118.214C-0.0358315 116.122 -0.707954 110.277 -0.432365 105.75C0.182667 95.9395 7.26056 88.3482 7.55967 78.5154C7.73861 76.6179 7.44286 74.6958 6.71628 73.0348C5.9897 71.3738 4.87112 70.0624 3.52673 69.2955C2.1824 68.8139 0.478382 68.9759 -0.220673 67.3911C-0.660942 66.4017 -0.472706 65.1409 -0.694519 64.0333C-1.33308 60.8549 -7.29183 58.8061 -9.53015 58.4515C-10.6224 58.2764 -11.8828 58.1012 -12.4776 56.8579C-12.8137 56.118 -12.8339 55.1505 -13.2103 54.4369C-13.906 53.1235 -15.5393 53.1848 -16.1913 51.8364C-16.4531 51.1714 -16.5606 50.4214 -16.5005 49.6781C-16.4468 45.8343 -14.5646 42.3714 -11.4223 43.9869C-10.4509 44.6631 -9.41925 45.1807 -8.35055 45.5278C-7.591 45.6592 -6.80788 45.4622 -6.05505 45.6636C-4.35447 46.1101 -3.34288 48.3385 -1.95822 49.7307Z" fill="#FFD885"/>
</g>
<g style="mix-blend-mode:multiply">
<path d="M67.5845 -6.17988C65.6207 -6.66658 63.6115 -6.76253 61.6257 -6.46446C60.4945 -6.19267 59.3478 -6.04619 58.1977 -6.02664C57.1293 -6.1786 56.0696 -6.41992 55.025 -6.74903C49.5368 -8.00111 47.6883 -4.52507 43.9073 -1.17597C40.449 1.88856 36.0698 -0.195299 32.3864 2.12937C30.8245 3.09071 29.5803 4.75185 28.881 6.80936C28.0105 9.63749 29.3045 11.8046 28.4743 14.4182C27.87 15.7348 27.4682 17.192 27.2914 18.7085C27.3688 19.3511 27.3688 20.0054 27.2914 20.6479C27.1016 21.2275 26.7817 21.7189 26.3738 22.0576C24.2094 24.2028 21.3124 26.2429 21.2385 29.7846C21.2083 31.3125 21.7594 32.766 21.8334 34.2895C21.9544 36.8419 20.7545 39.543 21.6149 41.8458C21.9702 42.6003 22.4594 43.2327 23.0413 43.6898C23.6232 44.1469 24.2808 44.4153 24.9589 44.4725C27.3589 44.6907 29.7675 44.2599 32.0335 43.2073C34.1038 42.4455 36.4698 41.3336 37.1386 38.6718C37.757 36.2289 36.6748 33.2257 37.8108 31.1199C39.3332 28.3093 45.5978 26.9522 45.4164 32.2232C45.3794 33.3001 44.9828 34.4121 45.2987 35.4103C45.5653 36.0177 45.919 36.5527 46.3406 36.9863C46.9965 37.8955 47.4107 39.0552 47.522 40.2943C47.6334 41.5335 47.4359 42.7865 46.9589 43.8684C43.8905 50.479 36.2614 51.0875 33.7106 58.9284C30.4674 68.8969 32.7595 88.9127 40.3919 95.0768C40.8269 95.3615 41.2141 95.7558 41.5312 96.2369C41.8885 97.1358 41.9714 98.1775 41.7631 99.1526C41.2904 103.239 40.8176 107.315 40.3448 111.38C40.1163 113.333 40.0289 115.727 41.2825 116.839C41.8572 117.184 42.4862 117.348 43.1185 117.318C43.7508 117.287 44.3687 117.063 44.9223 116.664C51.1952 113.906 56.8084 109.068 61.2089 102.624C65.8738 96.0049 66.1863 90.5106 69.0599 82.858C70.0984 80.0956 72.2157 78.1912 73.1735 75.3805C73.9413 72.3021 73.9833 68.9948 73.2944 65.8849L72.1955 58.1272C72.0936 56.0301 71.3921 54.0589 70.2294 52.6023C69.0666 51.4991 67.282 51.3327 66.6703 49.6385C66.4283 48.973 66.4316 48.1894 66.1695 47.5371C65.7158 46.4032 64.6437 46.0223 63.7665 45.4532C61.8038 44.1879 62.3617 41.6969 62.9633 39.5518C63.3186 38.0931 63.9975 36.8041 64.9144 35.8474C65.8313 34.8906 66.9451 34.309 68.1154 34.1757C72.2224 34.1407 74.2356 40.7426 77.7544 43.505C79.4201 44.6311 81.2344 45.3366 83.1015 45.5845C90.2432 47.1211 99.4182 49.7348 106.022 43.9078C106.949 42.9607 107.607 41.6376 107.892 40.1482C108.176 38.6589 108.07 37.0885 107.592 35.6861C105.542 27.9109 99.3409 23.7212 96.4741 16.6027C94.9013 12.6976 94.9719 10.6313 92.1051 8.11399C88.5192 5.3619 84.8164 2.8771 81.0144 0.671559C76.8166 -2.44889 72.2926 -4.7569 67.5845 -6.17988Z" fill="#FFD885"/>
</g>
<g style="mix-blend-mode:multiply" opacity="0.2">
<path d="M39.1476 125.534C22.5575 125.55 6.35471 120.518 -7.31029 111.105C-20.9753 101.692 -31.4564 88.3439 -37.3624 72.8316C-43.2685 57.3194 -44.3202 40.3767 -40.3781 24.2524C-36.436 8.12803 -27.6863 -6.41557 -15.2906 -17.4482C-24.9438 -11.4604 -33.2454 -3.52735 -39.667 5.84614C-46.0885 15.2196 -50.4894 25.8282 -52.5893 36.9965C-54.6893 48.1648 -54.4423 59.6483 -51.8643 70.716C-49.2862 81.7836 -44.4336 92.1929 -37.6151 101.281C-30.7966 110.37 -22.1616 117.938 -12.2599 123.505C-2.35827 129.072 8.59322 132.515 19.8975 133.615C31.2018 134.716 42.6113 133.449 53.3996 129.896C64.1879 126.343 74.1186 120.582 82.5599 112.979C69.5647 121.182 54.5131 125.535 39.1476 125.534Z" fill="#222226"/>
</g>
<g style="mix-blend-mode:overlay" opacity="0.2">
<path d="M28.1258 -30C19.9617 -30.0031 11.8432 -28.7842 4.03953 -26.3838C-4.71191 -20.3662 -12.091 -12.5629 -17.6123 -3.48719C-23.1336 5.5885 -26.672 15.731 -27.9948 26.2731C-29.3176 36.8153 -28.3949 47.5182 -25.2873 57.6779C-22.1797 67.8376 -16.9576 77.2239 -9.96447 85.2194C-2.97139 93.2149 5.63427 99.6385 15.2864 104.068C24.9385 108.497 35.4184 110.831 46.0367 110.917C56.6551 111.003 67.1712 108.838 76.8936 104.566C86.616 100.293 95.3244 94.0099 102.446 86.1285C108.212 73.656 110.745 59.9308 109.81 46.2202C108.875 32.5095 104.503 19.2557 97.096 7.68264C89.6895 -3.89041 79.4879 -13.4095 67.4335 -19.9956C55.379 -26.5817 41.8602 -30.0224 28.1258 -30Z" fill="white"/>
</g>
</g>
<defs>
<linearGradient id="paint0_linear" x1="-19.396" y1="-5.56406" x2="83.76" y2="119.568" gradientUnits="userSpaceOnUse">
<stop stop-color="#7FC8EF"/>
<stop offset="0.891" stop-color="#5895FF"/>
</linearGradient>
<clipPath id="clip0">
<rect width="164" height="164" fill="white" transform="translate(-54 -30)"/>
</clipPath>
</defs>
</svg>
