<svg width="110" height="134" viewBox="0 0 110 134" fill="none" xmlns="http://www.w3.org/2000/svg">
<g clip-path="url(#clip0)">
<path d="M27.9936 133.987C73.2775 133.987 109.987 97.2775 109.987 51.9936C109.987 6.7098 73.2775 -30 27.9936 -30C-17.2902 -30 -54 6.7098 -54 51.9936C-54 97.2775 -17.2902 133.987 27.9936 133.987Z" fill="url(#paint0_linear)"/>
<g style="mix-blend-mode:multiply" opacity="0.2">
<path d="M39.4692 128.916C21.2325 128.913 3.51684 122.832 -10.8776 111.635C-25.2719 100.437 -35.524 84.762 -40.0133 67.0864C-44.5026 49.4109 -42.9732 30.7433 -35.6666 14.0342C-28.36 -2.67488 -15.693 -16.4723 0.332024 -25.1773C-10.3025 -21.3628 -20.0344 -15.3925 -28.2534 -7.64051C-36.4723 0.111456 -43.0011 9.47783 -47.4304 19.8714C-51.8597 30.2649 -54.0939 41.4614 -53.9931 52.7589C-53.8922 64.0564 -51.4584 75.2113 -46.8443 85.5241C-42.2301 95.8369 -35.5351 105.085 -27.1791 112.689C-18.823 120.293 -8.98614 126.089 1.71484 129.713C12.4158 133.337 23.7501 134.711 35.007 133.749C46.264 132.787 57.2008 129.51 67.1318 124.123C58.2558 127.302 48.8973 128.923 39.4692 128.916Z" fill="#222226"/>
</g>
<g style="mix-blend-mode:overlay" opacity="0.2">
<path d="M27.9955 -29.9742C17.1821 -29.9865 6.47372 -27.853 -3.5092 -23.6971C-16.3704 -10.0293 -24.1546 7.63613 -25.5627 26.3507C-26.9708 45.0652 -21.9175 63.6966 -11.2463 79.135C-0.575077 94.5733 15.0684 105.885 33.073 111.181C51.0777 116.477 70.3542 115.438 87.685 108.236C98.6638 96.5839 105.991 81.9722 108.762 66.2041C111.533 50.436 109.628 34.2016 103.28 19.5041C96.9318 4.80656 86.4198 -7.71085 73.0407 -16.5036C59.6617 -25.2964 44.001 -29.9797 27.9913 -29.9756L27.9955 -29.9742Z" fill="white"/>
</g>
<g style="mix-blend-mode:multiply" opacity="0.8">
<path d="M28.7519 -29.8203C13.3496 -29.8203 2.14791 -27.0198 -9.75387 -20.7189C-18.1551 -17.2184 -27.9566 -8.11701 -29.9023 -5.86293C-29.2849 -3.60279 -28.0166 -1.6473 -26.3032 -0.313921C-24.154 1.45805 -21.6309 2.54587 -18.9924 2.83814C-16.3538 3.13041 -13.6947 2.61663 -11.2872 1.3494C-7.97276 -0.45179 -4.14869 -3.7 -1.12888 -1.31697C0.883953 0.270454 1.17639 3.60594 2.89456 5.59433C5.59089 8.71478 10.4773 7.02111 13.0197 3.74001C15.562 0.458921 16.7185 -3.92262 18.8765 -7.54649C24.1739 -16.4436 34.4663 -19.3326 43.8724 -19.9739C46.715 -20.1674 49.6739 -20.1965 52.2727 -18.8697C54.8716 -17.5428 57.0085 -14.5021 56.6806 -11.2728C56.1932 -6.44858 50.8415 -3.72908 50.3529 1.09642C50.0007 4.57737 52.4932 7.7598 55.3645 9.00191C58.2359 10.244 61.4064 10.0138 64.4738 9.89491C69.7845 9.68114 75.3411 9.88099 80.0281 12.7396C84.7151 15.5982 88.2069 21.8619 86.7967 27.712C85.4751 33.199 80.5067 36.4662 75.7 37.9726C70.8934 39.4791 65.7588 39.8624 61.3078 42.42C55.606 45.6922 51.5793 52.2278 45.5773 54.7209C42.2119 56.1186 38.5019 56.1123 35.1099 57.4265C31.7179 58.7407 28.4411 62.1837 28.8908 66.2427C29.3827 70.6925 34.0575 73.0135 37.968 72.567C41.8784 72.1205 45.4532 69.8754 49.3005 68.9672C55.3147 67.5442 61.5426 69.4808 67.2676 72.0232C70.7339 73.5612 74.2267 75.4118 76.7247 78.5563C79.2228 81.7007 80.5156 86.4364 78.9891 90.3108C77.1524 94.9769 72.1274 96.7439 67.6498 97.0058C63.1722 97.2676 58.4973 96.5985 54.3564 98.5616C50.2156 100.525 47.1038 106.614 49.6539 110.823C51.5837 114.008 55.5728 114.395 58.9338 113.859C62.2948 113.323 65.7954 112.208 68.9947 113.501C71.8671 114.661 74.3829 117.711 77.3872 117.129C78.9893 116.625 80.4279 115.598 81.527 114.175C88.6577 106.543 95.8993 98.6463 100.233 88.6449C106.201 74.8729 105.969 58.8077 105.609 43.447C105.366 33.0497 104.42 22.8919 100.351 13.5862C96.7909 5.43662 90.7256 -0.861046 84.7602 -6.90589C81.8911 -9.81511 78.5568 -12.4084 74.9588 -13.9276C69.6337 -16.1778 64.4417 -15.9516 59.2672 -18.6192C53.4647 -21.6119 48.4967 -25.2731 42.754 -28.4201C37.1531 -29.8203 32.2524 -29.8203 28.7519 -29.8203Z" fill="#BA98D3"/>
</g>
<g style="mix-blend-mode:multiply" opacity="0.8">
<path d="M9.50146 22.7042C7.66973 23.3868 5.76702 23.8709 3.82742 24.1479C-0.0221024 24.6629 -4.0359 24.1536 -7.73464 25.3179C-10.4613 26.1766 -12.8115 27.8847 -15.3714 29.1405C-27.2333 34.9538 -30.8764 21.0232 -41.1472 20.3541C-44.9841 20.1069 -47.9652 22.0071 -49.66 25.3806C-49.8739 26.888 -51.0602 29.6885 -51.7603 33.189L-52.3891 38.1254C-52.5373 39.2837 -52.4541 40.459 -52.144 41.5862C-51.6875 42.8947 -50.6514 43.9165 -49.8739 45.0718C-46.8793 49.5214 -47.9457 55.3718 -48.997 60.6001C-50.0482 65.8284 -50.7895 71.8213 -47.3679 75.9661C-45.8315 77.8275 -43.6422 79.0396 -41.5068 80.2089C-38.9528 81.6097 -36.003 83.0484 -33.2266 82.1411C-31.397 81.5421 -30.0493 80.0267 -28.362 79.1096C-26.4249 78.1557 -24.1827 77.9828 -22.1168 78.628C-20.0508 79.2732 -18.3258 80.6851 -17.3121 82.5606C-16.5142 84.3936 -16.2161 86.3978 -16.447 88.3772C-16.7233 92.0234 -17.9363 95.5394 -18.4442 99.1609C-18.9522 102.782 -18.6447 106.776 -16.2718 109.6C-13.3531 113.077 -7.92839 113.785 -3.62905 112.193C0.670292 110.6 3.98326 107.139 6.5541 103.409C8.41316 100.713 10.3623 97.5393 13.6298 96.9254C15.9741 96.4854 18.7926 97.4264 20.5438 95.8385C21.6481 94.8382 21.8191 93.2058 21.8073 91.7325C21.7652 87.0621 20.7123 81.9269 23.3968 78.064C26.5135 73.5765 22.7303 65.5969 27.3515 62.5934C28.4322 61.8905 34.3248 56.237 32.9523 53.492C30.852 49.2914 24.9567 50.3771 22.4507 49.9915C12.6493 49.9915 14.0495 62.9996 7.96587 64.8223C3.6699 66.1094 -0.648823 67.8966 -5.12505 67.5324C-6.29423 67.4368 -7.59903 67.0908 -8.14993 66.0772C-8.47534 65.3229 -8.51093 64.4788 -8.25016 63.7008C-7.83037 62.0604 -7.03337 60.5354 -5.91987 59.242C-4.80637 57.9485 -3.40576 56.9207 -1.82474 56.237C0.269333 55.352 2.63971 55.0908 4.57121 53.9001C6.50271 52.7094 7.78307 49.9754 6.34603 48.2417C5.18528 46.8409 3.04488 46.9052 1.21614 46.6851C-0.612591 46.4651 -2.785 45.2077 -2.38488 43.4493C-2.21673 42.8823 -1.8858 42.3744 -1.43135 41.9859C2.62707 38.0859 9.20327 39.0771 14.8167 38.1765C20.5539 37.2569 27.0888 32.434 31.5094 29.0235C33.7838 27.2667 39.0906 23.3914 39.126 20.3097C39.1782 15.2099 31.966 14.5334 28.3262 15.2008C21.6548 16.4138 15.8191 20.4217 9.50146 22.7042Z" fill="#BA98D3"/>
</g>
</g>
<defs>
<linearGradient id="paint0_linear" x1="-54" y1="51.9936" x2="109.987" y2="51.9936" gradientUnits="userSpaceOnUse">
<stop stop-color="#BA98D3"/>
<stop offset="1" stop-color="#BA5970"/>
</linearGradient>
<clipPath id="clip0">
<rect width="164" height="164" fill="white" transform="translate(-54 -30)"/>
</clipPath>
</defs>
</svg>
