<svg width="110" height="134" viewBox="0 0 110 134" fill="none" xmlns="http://www.w3.org/2000/svg">
<g clip-path="url(#clip0)">
<path d="M28.5002 134C73.5115 134 110 97.5113 110 52.5001C110 7.48891 73.5115 -28.9999 28.5002 -28.9999C-16.511 -28.9999 -52.9998 7.48891 -52.9998 52.5001C-52.9998 97.5113 -16.511 134 28.5002 134Z" fill="url(#paint0_linear)"/>
<g style="mix-blend-mode:multiply" opacity="0.5">
<path d="M-9.68191 1.57978C-10.4119 5.25023 -10.0401 10.1981 -6.9222 11.3019C-6.04114 11.4898 -5.13583 11.4623 -4.26452 11.2212C-3.39322 10.9802 -2.57522 10.5309 -1.86325 9.90239C2.19278 7.00072 5.4437 2.76649 9.54066 -0.0484352C13.6376 -2.86337 19.2833 -3.94756 22.9368 -0.407215C26.986 3.53526 26.5255 10.9984 24.3525 16.5731C22.2679 20.5878 20.6907 24.9263 19.6688 29.457C19.4365 31.3594 19.5662 33.2974 20.0488 35.1359C20.5313 36.9744 21.3551 38.6691 22.4626 40.1018C23.5923 41.5129 25.0116 42.5719 26.5893 43.1811C28.167 43.7903 29.8523 43.9298 31.489 43.5869C33.9338 42.831 36.185 41.4057 38.0523 39.4315C41.8774 35.8298 45.2799 31.6669 48.1736 27.0482C53.444 18.631 57.9333 7.92326 66.6491 5.36459C69.4753 4.63006 72.422 4.80912 75.1659 5.88218C77.9098 6.95525 80.3451 8.88086 82.2046 11.4478C84.0123 14.062 85.2529 17.1379 85.8225 20.4189C86.3922 23.6999 86.2746 27.0908 85.4795 30.3086C85.0569 32.3973 84.139 34.3087 82.8289 35.8281C81.2616 37.256 79.4199 38.2269 77.4595 38.6588C70.0857 40.1899 62.8608 42.5591 55.8899 45.7316C54.5879 46.2928 53.4044 47.1682 52.4179 48.2994C51.4315 49.4305 50.6649 50.7916 50.1692 52.2919C49.8208 55.3661 50.4473 58.4822 51.9328 61.0639C52.9981 64.0298 54.738 66.6072 56.9679 68.5231C61.4367 71.7047 67.2017 69.1381 71.9264 66.5321L98.0945 52.1618C99.8914 51.4033 101.463 50.0668 102.625 48.31C103.348 46.6897 103.718 44.8897 103.703 43.0665C104.32 35.5518 103.975 27.9731 102.679 20.5747C101.354 13.1342 98.0076 6.37721 93.1277 1.28808C87.3243 -3.78293 80.3711 -6.79618 73.1136 -7.38535C65.9499 -8.39069 58.6497 -8.30003 51.5303 -9.75086C48.8607 -10.1297 46.2973 -11.1895 44.0255 -12.8536C42.1944 -14.6237 40.5244 -16.6052 39.0416 -18.7673C23.5713 -37.9593 -5.30522 -20.4508 -9.68191 1.57978Z" fill="#D16111"/>
</g>
<g style="mix-blend-mode:multiply" opacity="0.5">
<path d="M54.0144 29.5004C54.1786 30.3925 54.5917 31.203 55.1942 31.8142C55.7966 32.4254 56.557 32.8057 57.3651 32.9C57.9415 33.0221 58.5323 33.0323 59.1118 32.9304C62.8589 32.3359 66.2875 30.2408 68.7641 27.0324C69.5677 25.7822 70 24.2802 70 22.7392C70 21.1981 69.5677 19.6962 68.7641 18.446C68.2703 17.7204 67.5663 17.2107 66.7733 17.0048C65.985 16.9651 65.2021 17.1689 64.5101 17.5941C63.8181 18.0192 63.2436 18.6494 62.8492 19.4157C62.0791 20.9558 61.1164 22.3644 59.9902 23.5986C58.8453 24.3923 57.6202 25.0306 56.3409 25.4999C55.6079 25.7755 54.9795 26.3205 54.5572 27.0466C54.135 27.7726 53.9437 28.6372 54.0144 29.5004Z" fill="#D16111"/>
</g>
<g style="mix-blend-mode:multiply" opacity="0.5">
<path d="M-1.43181 25.1859C-2.75044 28.0858 -3.25733 31.4223 -2.87694 34.6981C-2.59777 36.2834 -1.98363 37.7577 -1.75044 39.3471C-1.40559 41.6894 -1.7865 44.4995 -0.324967 46.0848C0.165586 46.56 0.754502 46.8639 1.37805 46.9639C2.0016 47.0638 2.63597 46.9557 3.21227 46.6516C4.36031 46.0181 5.32962 44.9931 6.00068 43.7029C7.49534 41.0727 8.22322 37.9176 8.06984 34.7338C7.65853 32.3434 7.59731 29.8846 7.88912 27.4689C8.82544 25.0288 10.2554 22.9122 12.0472 21.3138C15.1607 17.6437 17.3744 7.21208 10.3294 9.2651C5.21241 10.7791 0.61434 19.9186 -1.43181 25.1859Z" fill="#D16111"/>
</g>
<g style="mix-blend-mode:multiply" opacity="0.5">
<path d="M-12.1391 23.0117C-10.5017 26.3847 -9.80855 30.2622 -10.1553 34.1099C-10.7961 38.7638 -13.6901 43.3348 -12.3267 47.7756C-11.6688 49.9093 -10.1144 51.5302 -9.3781 53.6284C-7.78966 58.1363 -10.336 63.011 -12.3982 67.2507C-16.0036 73.533 -17.3079 81.2135 -16.025 88.6071C-14.2253 95.7613 -6.94777 101.295 -1.14282 98.0724C4.36899 95.008 5.562 86.1855 3.62929 79.473C1.49546 72.0465 -3.02777 61.5123 5.97451 57.2608C12.2226 54.3107 18.8661 59.1538 21.801 65.3695C22.7004 68.077 24.2912 70.4032 26.3617 72.0386C30.9497 74.6416 36.223 68.7612 41.2337 69.9247C49.6361 71.873 50.0349 86.6903 51.3745 94.101C51.812 96.0864 52.0217 98.1297 51.9982 100.178C51.6028 108.086 44.7548 113.193 38.5 116.435C31.6688 119.952 24.6007 122.817 17.3663 125.002C10.6285 127.982 3.31197 128.759 -3.78233 127.25C-10.8766 125.74 -17.4753 122.002 -22.856 116.443C-28.9916 111.135 -35.0555 104.754 -37.203 96.2307C-38.6623 88.9114 -38.1082 81.2473 -35.618 74.3103C-34.0623 70.2498 -32.9824 65.9669 -32.4071 61.5754C-32.3869 56.5095 -33.259 51.492 -34.9703 46.8291C-38.0381 36.638 -38.7199 26.297 -31.5037 18.07C-24.8943 10.5489 -15.9568 14.1813 -12.1391 23.0117Z" fill="#D16111"/>
</g>
<g style="mix-blend-mode:multiply" opacity="0.5">
<path d="M40.996 56.3587C41.2113 51.3379 32.7363 49.9199 30.0765 51.7913C24.4151 55.7775 27.2492 63.0696 33.061 62.9954C34.8485 63.0535 36.6172 62.5431 38.1891 61.5155C38.9669 60.9922 39.6283 60.25 40.117 59.3522C40.6057 58.4543 40.9073 57.4273 40.996 56.3587Z" fill="#D16111"/>
</g>
<g style="mix-blend-mode:multiply" opacity="0.2">
<path d="M39.0942 123.613C23.3019 123.633 7.83986 119.114 -5.43465 110.6C-18.7092 102.086 -29.2316 89.9394 -35.7382 75.6185C-42.2447 61.2976 -44.4585 45.4117 -42.1138 29.8691C-39.7691 14.3264 -32.9655 -0.212063 -22.5203 -12C-31.5257 -4.98335 -38.9581 3.829 -44.341 13.8718C-49.7239 23.9147 -52.9384 34.9662 -53.7783 46.3179C-54.6183 57.6695 -53.0652 69.0705 -49.2186 79.7897C-45.3719 90.509 -39.3165 100.31 -31.4411 108.564C-23.5656 116.818 -14.0438 123.342 -3.48628 127.719C7.07127 132.096 18.4315 134.229 29.8657 133.981C41.2999 133.732 52.5558 131.108 62.9114 126.277C73.2671 121.446 82.4938 114.514 90 105.926C75.5302 117.383 57.5846 123.618 39.0942 123.613Z" fill="#222226"/>
</g>
<g style="mix-blend-mode:overlay" opacity="0.39">
<path d="M28.2799 -30C15.3489 -29.9984 2.60498 -26.894 -8.89351 -20.9446C-21.0051 -6.42663 -27.7529 11.8565 -27.9933 30.8061C-28.2338 49.7557 -21.9523 68.206 -10.213 83.0302C1.52619 97.8543 18.0009 108.14 36.4188 112.145C54.8367 116.15 74.0649 113.626 90.8445 105.003C100.855 93.0261 107.257 78.4228 109.295 62.9112C111.334 47.3997 108.926 31.625 102.354 17.4432C95.7815 3.26141 85.3188 -8.73769 72.1963 -17.1425C59.0738 -25.5472 43.8374 -30.0079 28.2799 -30Z" fill="white"/>
</g>
</g>
<defs>
<linearGradient id="paint0_linear" x1="-52.9998" y1="52.5001" x2="110" y2="52.5001" gradientUnits="userSpaceOnUse">
<stop stop-color="#FFA000"/>
<stop offset="1" stop-color="#FF3D00"/>
</linearGradient>
<clipPath id="clip0">
<rect width="164" height="164" fill="white" transform="translate(-54 -30)"/>
</clipPath>
</defs>
</svg>
