<svg width="110" height="134" viewBox="0 0 110 134" fill="none" xmlns="http://www.w3.org/2000/svg">
<g clip-path="url(#clip0)">
<path d="M28 134C73.2873 134 110 97.2879 110 52.0009C110 6.71394 73.2873 -29.9984 28 -29.9984C-17.2873 -29.9984 -54 6.71394 -54 52.0009C-54 97.2879 -17.2873 134 28 134Z" fill="url(#paint0_linear)"/>
<g style="mix-blend-mode:multiply" opacity="0.11">
<path d="M-22.8254 31.0636C-18.8739 33.0146 -15.3113 36.2071 -10.7005 37.2996C-4.86753 38.5677 1.10928 38.8047 7.00888 38.0017C18.1882 36.6576 29 32.8093 40.1139 30.9184C46.2552 29.8734 52.5577 29.4054 58.3722 26.975C64.7784 24.2919 70.2063 19.3762 76.2924 15.8821C82.3785 12.388 89.8937 10.3957 95.9753 13.8948C81.7474 18.6503 71.3525 32.041 58.2809 39.8851C50.999 44.2552 42.9608 46.8482 35.5933 51.0231C30.6466 53.8264 25.9119 57.3793 20.4783 58.6645C15.694 59.7908 10.7372 59.0663 5.85027 59.1088C-6.44642 59.2482 -18.3092 64.1744 -27.6706 73.0288C-15.7073 71.1257 -3.74436 69.2248 8.21822 67.3259C12.7409 66.428 17.3354 66.0539 21.9277 66.2096C25.6042 66.4737 29.2536 67.416 32.9289 67.1695C46.2113 66.2872 56.0651 50.5188 69.3689 50.5601C69.8659 54.7975 66.709 58.3629 63.817 61.19C55.4655 69.3708 46.865 77.7093 36.442 82.0781C20.138 88.8973 1.87176 85.0378 -15.3237 88.1465C-24.8057 89.8572 -35.8012 93.2775 -43.0662 86.2981C-54.1046 75.6982 -46.9906 56.5133 -42.6447 44.5443C-39.7042 36.4524 -33.7849 27.1127 -24.9026 30.18C-24.196 30.4315 -23.5025 30.7265 -22.8254 31.0636Z" fill="black"/>
<path d="M6.64378 -9.78227C-0.185478 -8.08008 -7.32352 -5.80993 -14.4242 -5.27832C-20.9679 -4.78812 -26.5621 -4.49568 -32.789 -2.06665C-33.7183 -1.70576 -34.7536 -1.19106 -34.8989 -0.335737C-35.0533 0.576208 -34.0916 1.35461 -33.1371 1.81692C-27.4935 4.56544 -20.4472 2.50574 -13.9711 1.81692C-8.42944 1.2253 -2.81104 1.71128 2.77003 1.47886C16.5436 0.911745 29.4564 -3.94548 42.6356 -7.34985C44.7405 -7.8933 46.9867 -8.39956 49.1158 -7.92541C51.2449 -7.45127 53.0844 -5.59442 52.4547 -3.82716C51.91 -2.75955 50.9425 -1.88195 49.7152 -1.34234C31.3777 8.84457 8.05947 10.6938 -13.841 8.8936C-17.2718 8.60962 -21.7197 8.73978 -22.9063 11.4511C-3.96217 17.7933 17.1841 17.7163 36.0617 11.2364C41.6115 9.30267 47.6486 6.7815 53.3296 8.42283C53.4799 10.5958 50.3579 11.7308 47.8464 12.2861C35.8501 14.9451 24.2527 18.7352 13.2763 23.5836C15.6909 26.8958 21.5132 26.4411 26.0045 25.4886C44.0665 21.6574 62.3808 16.1613 75.5489 5.13088C78.351 2.78382 81.0563 -0.309538 80.248 -3.56009C79.5175 -6.48693 76.226 -8.37758 73.2008 -9.96482C67.0793 -13.1714 60.9577 -16.3794 54.8361 -19.5888C45.0543 -24.7131 43.5256 -22.1506 34.9578 -18.1867C26.3566 -14.2051 16.0189 -12.1209 6.64378 -9.78227Z" fill="black"/>
<path d="M102.459 33.7385C102.073 31.2818 99.7027 26.813 96.7108 27.9283C95.5321 28.4867 94.5087 29.3461 93.7357 30.4263C88.2352 36.8897 81.4954 40.8439 73.8744 44.3548C68.5758 44.3548 57.3271 50.5785 52.519 53.1788C47.1458 56.0777 42.3196 59.8346 36.8599 62.8059C35.2666 63.5959 33.7655 64.5727 32.3859 65.7172C31.1526 66.8201 30.1489 68.1977 28.8459 69.2144C25.2254 72.0658 20.2033 71.6162 15.6944 71.0291C15.3889 71.4462 15.2545 71.9719 15.3205 72.4915C15.3864 73.0112 15.6475 73.4826 16.0466 73.8031C16.8726 74.412 17.8531 74.7539 18.8654 74.786C28.008 75.8192 37.2471 74.1911 45.5507 70.0836C56.9455 64.6661 68.8219 60.4165 81.0109 57.3953C72.6183 69.2599 61.3923 78.6447 48.4416 84.623C35.3887 90.618 20.6408 90.081 7.19596 85.5934C5.45225 84.8922 3.65215 84.3531 1.81681 83.9822C0.167608 83.7487 -1.52125 83.9285 -3.17045 83.695C-7.86923 83.0355 -11.6172 79.1987 -16.2114 77.9859C-16.3845 82.8981 -11.9334 86.5589 -7.69615 88.7446C-5.41026 90.0443 -2.90786 90.8818 -0.321612 91.2126C1.31098 91.1767 2.94202 91.3393 4.53824 91.6972C9.25986 93.2971 11.8262 97.8071 16.9914 99.161C24.164 101.042 32.4545 100.198 39.6559 98.9699C52.531 96.7559 64.8369 91.8395 75.8229 84.5206C74.2413 90.2326 71.1445 95.3668 66.8867 99.3363C62.629 103.306 57.3821 105.95 51.746 106.967C48.8455 107.447 45.8885 107.477 43.0168 108.117C37.7987 109.28 33.0651 112.419 27.7617 113.03C21.2346 113.779 13.8493 110.795 8.49416 114.743C17.4452 119.982 27.4613 122.948 37.7254 123.4C62.1593 124.448 86.5007 109.88 98.2506 87.5943C98.6968 86.9319 98.9091 86.1299 98.8517 85.3237C98.7348 84.9207 98.5371 84.548 98.2718 84.23C98.0064 83.9121 97.6792 83.6561 97.3118 83.4789C92.2897 80.4951 83.7059 82.6284 82.0735 76.8593C81.267 74.0079 83.2035 70.9829 85.6797 69.4904C88.1559 67.9979 91.0708 67.5857 93.8319 66.8063C100.238 65.0091 106.297 60.8038 109.076 54.5439C110.038 52.3632 110.53 49.6142 109.128 47.7033C108.085 46.272 106.268 45.705 105.017 44.4747C102.378 41.8731 103.041 37.458 102.459 33.7385Z" fill="black"/>
</g>
<g style="mix-blend-mode:multiply" opacity="0.2">
<path d="M40.0577 123.154C24.1032 123.168 8.49636 118.461 -4.82209 109.616C-18.1405 100.772 -28.583 88.1809 -34.851 73.409C-41.119 58.6372 -42.936 42.3361 -40.076 26.5329C-37.216 10.7297 -29.8052 -3.87842 -18.7652 -15.4751C-28.1499 -8.96832 -36.0732 -0.550421 -42.0227 9.234C-47.9721 19.0184 -51.8151 29.9514 -53.303 41.3256C-54.7909 52.6997 -53.8905 64.2617 -50.6601 75.2634C-47.4297 86.2651 -41.9413 96.4614 -34.5499 105.193C-27.1586 113.924 -18.0289 120.996 -7.75172 125.95C2.5255 130.905 13.7214 133.632 25.1115 133.955C36.5016 134.278 47.8322 132.19 58.3703 127.826C68.9084 123.462 78.4191 116.92 86.2871 108.621C72.7091 118.097 56.5786 123.168 40.0577 123.154Z" fill="#222226"/>
</g>
<g style="mix-blend-mode:overlay" opacity="0.3">
<path d="M28.4672 -30C16.9605 -29.9957 5.58691 -27.5226 -4.89598 -22.7456C-16.7331 -8.52149 -23.4242 9.32674 -23.8744 27.8782C-24.3246 46.4296 -18.5071 64.5855 -7.37405 79.3747C3.759 94.1639 19.5483 104.71 37.4098 109.288C55.2714 113.866 74.1474 112.204 90.9488 104.575C100.885 92.6107 107.226 78.0415 109.227 62.5767C111.228 47.112 108.806 31.3934 102.247 17.2656C95.6868 3.13771 85.2607 -8.8133 72.1919 -17.185C59.1231 -25.5567 43.9538 -30.0017 28.464 -29.9984L28.4672 -30Z" fill="white"/>
</g>
</g>
<defs>
<linearGradient id="paint0_linear" x1="-54" y1="52.0009" x2="110" y2="52.0009" gradientUnits="userSpaceOnUse">
<stop stop-color="#6F88A3"/>
<stop offset="0.994" stop-color="#49568B"/>
</linearGradient>
<clipPath id="clip0">
<rect width="164" height="164" fill="white" transform="translate(-54 -30)"/>
</clipPath>
</defs>
</svg>
