<svg width="110" height="134" viewBox="0 0 110 134" fill="none" xmlns="http://www.w3.org/2000/svg">
<g clip-path="url(#clip0)">
<path d="M27.9998 134C73.2871 134 110 97.2871 110 51.9999C110 6.71259 73.2871 -30 27.9998 -30C-17.2874 -30 -54 6.71259 -54 51.9999C-54 97.2871 -17.2874 134 27.9998 134Z" fill="url(#paint0_linear)"/>
<path opacity="0.2" d="M39.4014 125.669C-5.7643 125.669 -42.5985 88.8344 -42.5985 43.6687C-42.5985 19.1126 -31.6359 -2.81253 -14.5343 -18.1601C-38.2134 -3.68953 -53.9995 22.1821 -53.9995 52.0002C-53.9995 97.1659 -17.1654 134 28.0004 134C48.6099 134 67.4655 126.107 81.9361 113.829C69.2195 121.284 54.749 125.669 39.4014 125.669Z" fill="#222226"/>
<path opacity="0.2" d="M28 -30C15.2834 -30 3.88239 -26.9305 -7.08016 -22.107C-19.3582 -7.63641 -26.8127 10.7807 -26.8127 31.3903C-26.8127 76.556 10.0214 113.39 55.1871 113.39C67.9037 113.39 79.3047 110.321 90.2673 105.497C102.545 91.0265 110 72.6094 110 51.9999C110 6.83416 73.1657 -30 28 -30Z" fill="white"/>
<mask id="mask0" mask-type="alpha" maskUnits="userSpaceOnUse" x="-54" y="-30" width="164" height="164">
<circle cx="27.9092" cy="51.9092" r="81.9092" fill="#C4C4C4"/>
</mask>
<g mask="url(#mask0)">
<path opacity="0.4" d="M5.90071 -45.7305C31.7723 -47.9231 57.6439 -52.7466 81.7616 -40.4685C86.5851 -37.8375 91.4086 -34.768 96.2321 -31.6985C102.81 -27.3135 109.387 -22.9284 112.457 -15.9124C115.526 -8.89639 113.334 1.18916 105.879 3.38167C102.371 4.25867 98.4246 3.82018 94.4781 4.69718C91.4086 5.57418 88.7776 7.76669 85.7081 8.64369C83.9541 9.0822 82.2 8.64369 80.8845 8.64369C76.938 8.64369 72.553 12.1517 69.045 10.3977C67.291 9.52069 66.414 7.32819 67.7295 6.01268C69.4835 4.25867 73.43 4.25867 75.6225 2.50467C77.815 0.75066 81.323 -1.44185 83.077 -3.63436C84.8311 -5.38837 84.8311 -8.01938 84.3925 -10.2119C82.6385 -19.4204 72.9915 -21.1744 65.0985 -22.4899C56.7669 -23.8055 47.5584 -26.875 40.5424 -21.6129C39.6654 -21.1744 38.7884 -20.2974 38.7884 -19.4204C38.3499 -17.2279 40.9809 -15.9124 43.1734 -15.0354C47.9969 -12.8429 52.8204 -10.6504 57.2054 -7.58088C58.521 -6.70387 59.3979 -5.82687 59.8364 -4.51136C60.7135 -1.44185 56.3284 0.750656 52.8204 0.750656C44.4889 0.750656 36.1573 -1.44185 29.5798 -6.26537C25.6333 -8.89638 21.2483 -12.8429 16.4248 -12.4044C12.9167 -11.9659 9.84722 -9.33489 6.33921 -8.01938C-2.43083 -4.94987 -11.6394 -10.2119 -19.0939 -15.9124C-19.9709 -16.7894 -21.2864 -17.6664 -22.1634 -17.6664C-23.0404 -17.6664 -23.9174 -17.6664 -24.7944 -17.2279C-27.8639 -16.3509 -31.372 -14.1584 -31.8105 -10.6504C-33.126 -4.07286 -19.9709 -0.56485 -16.4629 3.82017C-13.8319 7.32819 -11.2009 11.7132 -7.25434 12.1517C-5.06184 12.5902 -2.86932 11.7132 -0.676811 11.2747C2.3927 10.8362 5.02371 11.7132 8.09322 12.1517C19.9328 14.7827 32.2108 17.8522 44.0504 20.4832C50.1894 21.7988 56.3284 23.1143 62.4675 23.1143C80.446 23.1143 98.4246 11.7132 115.526 17.4137C115.965 23.1143 109.387 25.7453 103.687 27.0608C88.3391 30.1303 72.553 33.6383 57.2054 36.7078C51.0664 38.0233 44.9274 39.3388 38.7884 38.9003C28.2643 38.4618 18.1788 32.7613 7.21622 33.1998C0.200188 33.6383 -6.81584 36.2693 -13.8319 37.1463C-26.5484 38.9003 -39.265 34.5153 -52.42 32.3228C-56.8051 31.8843 -61.1901 31.4458 -65.1366 33.1998C-69.0831 34.9538 -71.7141 40.2158 -69.9601 44.1624C-68.2061 47.6704 -63.8211 48.9859 -60.3131 48.9859C-56.3666 48.9859 -52.42 48.9859 -48.912 50.3014C-46.281 51.6169 -44.0885 53.8094 -41.4575 55.5634C-39.265 56.8789 -36.634 57.3174 -34.003 57.3174C-25.2329 57.7559 -16.4629 55.1249 -7.25434 54.6864C10.7242 54.2479 28.2643 64.3334 45.3659 60.3869C47.5584 59.9484 51.0664 59.5099 51.5049 62.1409C51.9434 63.8949 49.7509 65.2104 47.9969 66.0874C24.7563 73.9805 -0.238319 75.296 -24.7944 78.3655C-26.1099 78.3655 -27.8639 78.804 -28.7409 79.681C-30.9334 81.435 -30.4949 85.3815 -28.7409 87.574C-26.5484 89.7666 -23.4789 90.205 -20.4094 90.205C-12.5164 90.6436 -4.62334 87.574 2.8312 88.8895C6.77772 89.328 10.7242 90.6435 14.6708 91.959C39.6654 98.0981 65.9755 85.82 91.8471 87.1355C102.371 87.574 113.772 90.205 122.542 84.5045C124.296 83.189 125.612 81.8735 125.612 80.1195C126.05 75.296 119.911 73.1035 115.526 73.1035C106.756 72.665 98.4246 73.1035 89.6546 73.9805C88.3391 74.419 86.1466 74.419 83.9541 73.9805C82.2 73.1035 80.446 71.788 79.1305 70.4725C76.061 67.403 72.9915 64.7719 69.922 61.7024C74.307 57.7559 80.8845 59.0714 86.5851 59.5099C101.494 60.3869 115.526 50.7399 129.997 47.6704C135.697 46.3549 142.713 46.7934 145.783 51.6169C147.975 55.5634 146.66 60.3869 147.098 65.2104C147.975 72.665 154.114 78.804 153.676 85.82C153.237 89.7666 151.045 93.2746 147.975 96.3441C136.136 109.938 117.719 117.392 99.7401 115.638C90.9701 114.761 82.2 112.13 73.43 111.692C64.2215 111.253 54.5744 113.446 46.2429 117.831C45.8044 118.269 44.9274 118.708 44.4889 119.146C44.0504 120.023 44.4889 120.9 44.9274 121.777C48.4354 130.109 56.7669 136.248 65.537 137.563C68.168 138.002 70.799 138.002 73.43 138.879C76.061 139.756 77.3765 142.825 76.4995 145.456C75.6225 147.21 73.43 147.649 71.676 148.087C62.029 150.28 52.3819 151.595 42.7349 152.472C34.8418 152.911 25.1948 151.595 22.5638 144.141C21.2483 140.633 22.1253 136.248 23.4408 132.74C24.7563 129.232 26.0718 125.285 25.6333 121.339C25.1948 117.392 21.6868 113.446 18.1788 113.884C13.3552 114.323 11.6012 120.023 7.65472 122.654C3.2697 125.724 -2.86933 123.97 -8.13135 124.408C-13.3934 124.847 -18.2169 127.039 -23.0404 128.355C-27.8639 129.67 -34.003 130.109 -37.9495 126.601C-39.265 125.285 -40.5805 123.093 -39.265 121.339C-38.8265 120.9 -37.9495 120.462 -37.0725 120.023C-26.5484 117.392 -16.4629 114.323 -5.93884 111.692C-3.30783 110.815 0.200188 108.622 -1.55383 105.991C-1.99232 105.114 -3.30783 104.676 -4.18484 104.676C-12.9549 102.483 -21.7249 104.676 -30.9334 105.553C-40.142 106.43 -49.789 105.553 -55.9281 98.9751C-61.6286 92.3976 -61.6286 81.8735 -67.3291 75.296C-70.8371 70.911 -76.5377 68.7185 -80.4842 64.3334C-87.5002 56.8789 -87.0617 45.4779 -86.1847 34.9538C-85.3077 26.1838 -83.9922 16.9752 -77.8532 11.2747C-73.9066 8.6437 -67.7676 6.45118 -65.1366 1.18916C-64.2596 -1.00335 -64.2596 -3.19586 -63.8211 -5.38837C-61.6286 -19.8589 -49.789 -31.26 -36.634 -37.399C-23.4789 -43.0995 -8.56985 -44.415 5.90071 -45.7305Z" fill="#8487B2"/>
</g>
</g>
<defs>
<linearGradient id="paint0_linear" x1="-54.2548" y1="52.0994" x2="109.848" y2="52.0994" gradientUnits="userSpaceOnUse">
<stop stop-color="#B4B6E6"/>
<stop offset="1" stop-color="#7983E6"/>
</linearGradient>
<clipPath id="clip0">
<rect width="164" height="164" fill="white" transform="translate(-54 -30)"/>
</clipPath>
</defs>
</svg>
