<svg width="110" height="134" viewBox="0 0 110 134" fill="none" xmlns="http://www.w3.org/2000/svg">
<g clip-path="url(#clip0)">
<path d="M28 134.003C73.2874 134.003 110 97.2901 110 52.0028C110 6.71542 73.2874 -29.9972 28 -29.9972C-17.2873 -29.9972 -54 6.71542 -54 52.0028C-54 97.2901 -17.2873 134.003 28 134.003Z" fill="#56CEE3"/>
<g style="mix-blend-mode:multiply" opacity="0.2">
<path d="M41.9556 123.753C25.3718 123.77 9.17484 118.748 -4.48683 109.353C-18.1485 99.9578 -28.6291 86.634 -34.5385 71.1488C-40.4478 55.6636 -41.5065 38.749 -37.5742 22.6486C-33.6419 6.54821 -24.9043 -7.97693 -12.5207 -19.0001C-22.5125 -13.3425 -31.2005 -5.64593 -38.0192 3.58883C-44.8379 12.8236 -49.6345 23.3896 -52.0971 34.5994C-54.5597 45.8092 -54.6329 57.4115 -52.3121 68.6515C-49.9913 79.8914 -45.3284 90.517 -38.6268 99.8371C-31.9252 109.157 -23.3352 116.963 -13.4156 122.746C-3.49597 128.529 7.53086 132.16 18.9475 133.403C30.3642 134.646 41.9147 133.472 52.8477 129.959C63.7806 126.447 73.851 120.672 82.4034 113.013C70.0873 120.053 56.1442 123.756 41.9556 123.753Z" fill="#222226"/>
</g>
<g style="mix-blend-mode:overlay" opacity="0.2">
<path d="M28.1338 -30C17.2444 -30.0092 6.46323 -27.8412 -3.57504 -23.6235C-16.3589 -9.94878 -24.0626 7.69421 -25.4001 26.3604C-26.7376 45.0266 -21.628 63.5866 -10.9242 78.9421C-0.220413 94.2976 15.4299 105.52 33.4142 110.735C51.3985 115.95 70.6287 114.843 87.8947 107.598C98.8034 95.9629 106.068 81.393 108.794 65.6832C111.52 49.9734 109.587 33.8099 103.235 19.184C96.8825 4.55805 86.3876 -7.89141 73.0432 -16.6306C59.6987 -25.3699 44.0876 -30.0172 28.133 -30H28.1338Z" fill="white"/>
</g>
<mask id="mask0" mask-type="alpha" maskUnits="userSpaceOnUse" x="-54" y="-30" width="164" height="165">
<ellipse cx="27.8457" cy="52.2077" rx="81.8457" ry="81.7925" fill="#C4C4C4"/>
</mask>
<g mask="url(#mask0)">
<g style="mix-blend-mode:multiply">
<path d="M-14.9222 -40.3034C-4.03757 -44.5786 9.85086 -46.9758 18.0818 -38.6836C25.5205 -31.1907 24.0616 -18.0609 17.6076 -9.70207C11.1536 -1.34321 1.08661 3.27175 -8.71799 7.18514C-16.371 10.2325 -32.7367 16.0027 -23.4105 27.4899C-17.1185 35.2349 -3.78111 31.2178 4.30136 37.0689C11.4211 42.2244 6.71375 47.4911 8.64597 53.6087C10.9039 60.739 14.9152 58.8367 21.91 59.7853C28.5201 60.6808 33.1912 68.0852 32.6208 74.5198C31.9695 81.9401 26.1879 83.108 21.7033 88.4186C19.6453 90.8597 18.513 94.521 20.1558 97.2657C21.932 100.239 25.9888 100.787 29.4533 100.683C38.8014 100.38 47.8838 97.6654 57.1357 96.3044C66.3876 94.9435 76.41 95.1239 84.3439 100.062C91.4316 104.47 95.8985 112.12 98.7108 119.967C100.805 125.826 102.138 132.26 100.465 138.252C98.267 146.167 91.316 151.811 84.2553 156.012C52.0098 175.197 8.85941 174.303 -22.5609 153.792C-32.8793 147.053 -42.716 136.542 -41.6208 124.271C-41.2428 120.018 -40.3475 114.262 -44.3512 112.79C-35.4399 108.012 -26.5283 103.231 -17.6164 98.4479C-15.6478 97.3896 -13.6195 96.2875 -12.2357 94.5345C-8.772 90.1556 -10.8856 83.1805 -15.3745 79.8624C-19.8633 76.5443 -25.8625 76.1118 -31.4289 76.5739C-36.9952 77.036 -42.554 78.2384 -48.1195 77.735C-63.8853 76.3217 -74.9733 62.1421 -84.0548 49.1826C-91.5306 38.5091 -88.8212 29.6249 -82.7891 19.4473C-75.358 6.90939 -75.3876 -7.90684 -62.0721 -16.2286C-47.121 -25.6703 -31.339 -33.7286 -14.9222 -40.3034Z" fill="#56CEE3"/>
</g>
<g style="mix-blend-mode:multiply">
<path d="M39.3098 -28.3424C43.2924 -24.8144 49.182 -23.6456 52.3959 -19.4143C57.4003 -12.8237 53.032 -3.32568 47.7104 2.99848C42.8165 8.80491 37.111 13.9756 32.9959 20.352C28.8809 26.7284 26.4896 34.8428 29.1323 41.9587C32.774 51.7966 44.1514 56.0717 54.3796 58.4167C64.6078 60.7617 75.9927 62.9136 82.3581 71.2505C90.7747 82.2723 86.8301 99.7734 96.3926 109.825C101.966 115.692 110.921 117.282 118.909 115.943C137.924 112.755 152.587 93.079 150.202 73.9581C147.818 54.8372 128.771 39.3624 109.544 40.9384C102.898 41.4857 95.6222 43.6367 89.9816 40.0876C85.2961 37.1287 83.5056 30.9749 84.06 25.4636C84.6144 19.9523 87.0723 14.839 89.2264 9.73077C95.0585 -4.07952 98.9078 -19.4649 95.3918 -34.0367C91.9206 -48.3942 76.1919 -67.0345 59.8936 -64.8227C45.5866 -62.8791 23.722 -42.1746 39.3098 -28.3424Z" fill="#56CEE3"/>
</g>
</g>
</g>
<defs>
<clipPath id="clip0">
<rect width="164" height="164" fill="white" transform="translate(-54 -30)"/>
</clipPath>
</defs>
</svg>
