<svg width="140" height="135" viewBox="0 0 140 135" fill="none" xmlns="http://www.w3.org/2000/svg">
<path d="M28 134C73.2873 134 110 97.2873 110 52C110 6.71265 73.2873 -30 28 -30C-17.2873 -30 -54 6.71265 -54 52C-54 97.2873 -17.2873 134 28 134Z" fill="url(#paint0_linear)"/>
<g style="mix-blend-mode:multiply" opacity="0.2">
<path d="M-2.28374 113.414C-13.1332 106.925 -22.3147 97.9848 -29.0935 87.3074C-35.8723 76.6301 -40.0601 64.5125 -41.3218 51.9245C-42.5835 39.3364 -40.8841 26.6275 -36.3594 14.8148C-31.8348 3.00219 -24.6107 -7.58621 -15.2652 -16.1029C-24.8886 -10.2185 -33.1776 -2.3862 -39.6009 6.89203C-46.0241 16.1703 -50.4398 26.6896 -52.5649 37.7758C-54.69 48.862 -54.4775 60.2704 -51.9413 71.2696C-49.405 82.2688 -44.6008 92.6162 -37.8366 101.648C-31.0725 110.681 -22.4977 118.198 -12.6619 123.72C-2.82609 129.241 8.05367 132.644 19.2799 133.711C30.5062 134.777 41.8313 133.484 52.5292 129.914C63.227 126.344 73.0617 120.575 81.4026 112.978C68.8181 120.68 54.3699 124.791 39.6201 124.868C24.8703 124.945 10.3801 120.984 -2.28374 113.414Z" fill="#222226"/>
</g>
<g style="mix-blend-mode:overlay" opacity="0.3">
<path d="M70.4193 -18.5387C60.4571 -24.5021 49.3275 -28.2452 37.7893 -29.5128C26.2511 -30.7803 14.5754 -29.5426 3.55834 -25.8839C-10.0948 -13.3615 -19.0451 3.46924 -21.7991 21.7997C-24.553 40.1302 -20.944 58.8518 -11.5744 74.8403C-2.20468 90.8289 12.359 103.117 29.6864 109.655C47.0138 116.193 66.0569 116.585 83.638 110.765C92.9327 102.232 100.107 91.6423 104.589 79.8414C109.071 68.0405 110.736 55.3546 109.452 42.7952C108.169 30.2358 103.971 18.1504 97.1943 7.50282C90.4177 -3.14481 81.2496 -12.0601 70.421 -18.5322L70.4193 -18.5387Z" fill="white"/>
</g>
<mask id="mask0" mask-type="alpha" maskUnits="userSpaceOnUse" x="-54" y="-30" width="164" height="164">
<path d="M110 51.9999C110 97.2873 73.2873 134 28 134C-17.2873 134 -54 97.2873 -54 51.9999C-54 6.71259 -17.2873 -30.0001 28 -30.0001C73.2873 -30.0001 110 6.71259 110 51.9999Z" fill="#C4C4C4"/>
</mask>
<g mask="url(#mask0)">
<g style="mix-blend-mode:multiply">
<path d="M58.0198 -31.9506C68.8538 -31.8101 79.5935 -33.6676 90.416 -34.0931C93.6438 -34.3953 96.8993 -34.0471 99.9904 -33.069C105.619 -30.9188 108.259 -25.5077 112.119 -21.3941C122.978 -9.80192 142.703 -8.98958 159.585 -5.5131C177.6 -1.90629 194.468 6.03635 208.73 17.6288C195.862 23.6867 179.694 19.9965 166.642 14.2447C153.591 8.49294 141.33 0.704529 126.897 -1.61505C117.33 -3.15503 107.19 -2.19255 98.0521 -5.07999C91.1736 -7.26098 85.4124 -11.467 78.6782 -13.9348C59.8177 -20.8647 36.8056 -13.2726 18.0893 -20.4797C14.4838 -21.8715 11.0359 -23.8118 7.10346 -24.1814C3.171 -24.551 -1.49225 -22.5568 -1.75569 -19.1765C-1.72743 -18.2039 -1.47765 -17.2505 -1.02543 -16.3891C-0.573204 -15.5278 0.0695724 -14.7812 0.853821 -14.2063C11.3801 -4.97797 30.2925 -12.8722 44.384 -8.29274C49.4279 -6.6546 53.6431 -3.44184 58.762 -1.99234C67.4154 0.458138 77.3282 -2.46975 85.8201 0.375355C90.1006 1.80753 93.5562 4.5641 97.4349 6.67194C108.65 12.7664 122.68 13.136 135.536 15.9965C160.472 21.5423 182.015 36.7996 207.648 39.0344C193.802 47.1559 174.884 43.9739 159.458 38.3106C144.032 32.6474 129.075 24.6992 112.317 23.9754C101.877 23.5231 91.4121 25.9505 81.0185 24.9379C70.1903 23.8965 60.3869 19.2381 50.4433 15.4286C28.0103 6.92075 4.25955 2.42118 -19.7277 2.13478C-7.7906 7.00611 4.43125 11.1467 16.8702 14.5335L67.0865 29.3115C79.4935 32.9689 92.0697 36.6436 105.15 37.4771C114.018 38.0431 122.97 37.2847 131.8 38.1932C140.701 39.0694 149.331 41.7432 157.17 46.0529C166.994 51.5506 175.096 59.7086 186.31 62.6807C197.358 65.6048 210.965 63.4103 219.238 70.3247C199.027 74.9004 177.009 77.8725 157.649 71.1236C147.749 67.6721 139.152 61.8588 129.21 58.4882C119.222 55.1021 108.342 54.3263 97.6925 53.0982C79.9819 51.0558 62.5214 47.6679 45.0916 44.2858C23.0967 40.0181 -0.348076 35.0459 -15.4972 20.7473C-19.0143 17.4286 -25.112 13.5036 -28.4849 16.9243C-29.3243 17.8667 -29.7865 19.0862 -29.7829 20.3488C-30.1021 26.2585 -25.2909 31.606 -19.5143 34.8515C-13.7377 38.097 -6.97459 39.7602 -0.615341 42.0836C11.7666 46.6092 22.7237 53.6757 35.1999 58.005C59.0562 66.2823 86.7585 63.9858 110.057 73.3469C121.299 77.8648 131.168 84.9815 143.111 87.8882C162.222 92.5369 185.063 86.0844 201.135 96.0808C191.691 102.144 179.099 102.834 167.302 103.29C148.938 103.996 129.41 104.472 113.534 96.5524C105.425 92.5099 98.6751 86.4155 89.8967 83.5742C78.8878 80.0131 66.5943 82.1171 54.8796 81.1334C41.5246 80.0131 29.0598 74.8773 15.8318 72.9447C7.81875 71.7762 -0.567253 71.7589 -8.03221 69.01C-21.9545 63.8858 -30.3925 50.1126 -45.159 47.1963C-38.7939 66.2169 -28.6445 86.9449 -7.18423 94.3117C12.632 101.113 35.598 94.0711 56.2603 98.6756C66.0944 100.866 74.8496 105.579 83.9702 109.415C104.769 118.16 127.687 122.407 150.343 126.578C159.783 128.54 169.347 129.849 178.967 130.495C166.673 136.988 151.137 136.134 136.748 135.061C121.941 133.96 106.963 132.83 92.9043 128.709C82.2761 125.591 72.3632 120.805 61.5888 118.07C38.219 112.137 12.4743 116.212 -10.6725 109.671C-2.02874 120.634 16.7895 119.681 31.1925 124.468C37.1191 126.439 42.4649 129.51 48.2684 131.739C53.4248 133.603 58.7154 135.073 64.0944 136.134C87.5305 141.186 111.379 144.082 135.342 144.786C123.431 155.128 108.308 161.018 92.5467 161.453C69.1249 162.261 47.4799 151.934 25.7773 144.355C13.278 139.991 0.315384 136.438 -11.3724 130.657C-24.3923 123.901 -36.1817 114.996 -46.2454 104.318C-64.7771 85.453 -79.4878 62.9059 -82.4818 38.3896C-83.6219 30.5091 -82.9899 22.4732 -80.6319 14.8684C-75.263 -1.2108 -60.5561 -13.5575 -46.4262 -25.1112C-35.4095 -34.12 -23.2679 -43.5908 -8.13609 -45.1192C4.85548 -46.4244 15.8029 -44.2549 27.7599 -40.3242C37.6113 -37.1075 47.1916 -32.0911 58.0198 -31.9506Z" fill="#D1992A"/>
</g>
</g>
<path d="M163.848 104.9C169.689 90.0144 148.13 66.2361 109.5 42.9999C110.014 47.5055 110.094 52.4716 109.85 56.9999C122.108 67.4837 127.069 76.587 124.359 83.4932C118.242 99.0845 69.7351 94.601 16.0192 73.4796C-37.6968 52.3581 -76.286 22.5958 -70.1659 7.00451C-67.0486 -0.943472 -52.8841 -3.64302 -32.6633 -1.61835C-29.9003 -4.73486 -26.8994 -7.63154 -23.6877 -10.2822C-71.3196 -21.3261 -107.502 -19.8879 -113.65 -4.22127C-122.376 18.0239 -67.3399 60.483 9.29846 90.6123C85.9369 120.742 155.122 127.138 163.848 104.9Z" fill="url(#paint1_linear)"/>
<g style="mix-blend-mode:multiply">
<path d="M124.5 83.0001C125.231 82.1878 126.83 82.1355 127.237 81.1208C129.947 74.213 123.86 64.527 111.601 54.0433C111.745 50.9316 111.712 47.8141 111.5 44.7062C110.803 44.2803 110.205 43.9292 109.5 43.5001C110.014 48.0057 110.083 52.4717 109.839 57.0001C121.984 67.3839 127.028 76.1037 124.5 83.0001Z" fill="#C9AF81"/>
</g>
<g style="mix-blend-mode:multiply">
<path d="M11.0643 87.6608C-65.5659 57.5283 -120.611 15.0724 -111.884 -7.16946C-111.846 -7.26939 -111.776 -7.35294 -111.735 -7.44958C-112.523 -6.46837 -113.167 -5.37882 -113.646 -4.21436C-122.373 18.0308 -67.3365 60.4899 9.30186 90.6192C85.5573 120.596 154.431 127.07 163.7 105.21C149.519 123.427 83.6395 116.201 11.0643 87.6608Z" fill="#C9AF81"/>
</g>
<defs>
<linearGradient id="paint0_linear" x1="-54" y1="52" x2="110" y2="52" gradientUnits="userSpaceOnUse">
<stop offset="0.285" stop-color="#FCBE33"/>
<stop offset="0.96" stop-color="#FC8A33"/>
</linearGradient>
<linearGradient id="paint1_linear" x1="-114.559" y1="50.3445" x2="164.757" y2="50.3445" gradientUnits="userSpaceOnUse">
<stop stop-color="#FFE1A4"/>
<stop offset="1" stop-color="#FEB86F"/>
</linearGradient>
</defs>
</svg>
