<svg width="110" height="134" viewBox="0 0 110 134" fill="none" xmlns="http://www.w3.org/2000/svg">
<g clip-path="url(#clip0)">
<path d="M28 134C73.2873 134 110 97.2873 110 52C110 6.71265 73.2873 -30 28 -30C-17.2873 -30 -54 6.71265 -54 52C-54 97.2873 -17.2873 134 28 134Z" fill="url(#paint0_linear)"/>
<g style="mix-blend-mode:multiply" opacity="0.2">
<path d="M38.7398 120.868C20.2598 120.87 2.40282 114.188 -11.5359 102.054C-25.4747 89.9209 -34.5544 73.1553 -37.0995 54.8515C-39.6446 36.5477 -35.4833 17.941 -25.3835 2.4651C-15.2837 -13.0107 0.0728455 -24.3112 17.8523 -29.351C3.74157 -27.5867 -9.66772 -22.1828 -21.0588 -13.67C-32.4499 -5.1571 -41.431 6.17202 -47.1204 19.2049C-52.8097 32.2378 -55.0116 46.5264 -53.5098 60.6674C-52.0081 74.8085 -46.8542 88.3159 -38.5545 99.8631C-30.2547 111.41 -19.0944 120.601 -6.16943 126.531C6.75552 132.462 21.0007 134.928 35.1672 133.69C49.3338 132.451 62.9345 127.549 74.634 119.465C86.3335 111.381 95.7293 100.394 101.899 87.5811C94.8731 97.8485 85.4484 106.247 74.4423 112.047C63.4361 117.848 51.1809 120.876 38.7398 120.868Z" fill="#222226"/>
</g>
<g style="mix-blend-mode:overlay" opacity="0.2">
<path d="M29.0563 -29.9788C18.6368 -26.6879 9.12761 -21.0138 1.28357 -13.4067C-6.56047 -5.79956 -12.5235 3.53116 -16.1322 13.845C-19.741 24.1587 -20.8961 35.1717 -19.5059 46.0098C-18.1158 56.8479 -14.2186 67.2129 -8.1237 76.282C-2.0288 85.3512 6.09605 92.8749 15.606 98.2561C25.116 103.637 35.7494 106.728 46.6622 107.282C57.575 107.837 68.4669 105.84 78.4735 101.451C88.48 97.0619 97.3258 90.4006 104.309 81.9961C109.165 69.6479 110.951 56.3055 109.514 43.1149C108.077 29.9242 103.46 17.2794 96.0586 6.26659C88.6574 -4.74623 78.6937 -13.798 67.0232 -20.1113C55.3526 -26.4245 42.324 -29.8106 29.0563 -29.9788Z" fill="white"/>
</g>
</g>
<defs>
<linearGradient id="paint0_linear" x1="-53.508" y1="52" x2="108.852" y2="52" gradientUnits="userSpaceOnUse">
<stop stop-color="#FFD000"/>
<stop offset="1" stop-color="#C88500"/>
</linearGradient>
<clipPath id="clip0">
<rect width="164" height="164" fill="white" transform="translate(-54 -30)"/>
</clipPath>
</defs>
</svg>
