<svg width="110" height="134" viewBox="0 0 110 134" fill="none" xmlns="http://www.w3.org/2000/svg">
<g clip-path="url(#clip0)">
<path d="M27.9948 133.99C73.2792 133.99 109.99 97.2792 109.99 51.9948C109.99 6.7103 73.2792 -30 27.9948 -30C-17.2897 -30 -54 6.7103 -54 51.9948C-54 97.2792 -17.2897 133.99 27.9948 133.99Z" fill="url(#paint0_linear)"/>
<g style="mix-blend-mode:multiply" opacity="0.2">
<path d="M39.8363 125.363C23.1962 125.366 6.94902 120.306 -6.74601 110.854C-20.441 101.402 -30.9355 88.006 -36.8346 72.4467C-42.7338 56.8873 -43.7584 39.9011 -39.7723 23.7455C-35.7861 7.58984 -26.9781 -6.97028 -14.5185 -17.9999C-24.2579 -12.0945 -32.6602 -4.22461 -39.1896 5.10799C-45.719 14.4406 -50.2325 25.0312 -52.4422 36.2048C-54.6519 47.3783 -54.5094 58.8897 -52.0238 70.0052C-49.5381 81.1206 -44.7639 91.5962 -38.0054 100.764C-31.247 109.932 -22.6525 117.592 -12.7698 123.254C-2.88716 128.917 8.06686 132.458 19.394 133.653C30.7211 134.848 42.1729 133.669 53.0194 130.193C63.8658 126.716 73.869 121.018 82.3913 113.462C69.5709 121.267 54.8459 125.385 39.8363 125.363Z" fill="#222226"/>
</g>
<g style="mix-blend-mode:overlay" opacity="0.5">
<path d="M89.3756 105.628C99.2627 94.4424 105.907 80.7684 108.591 66.0825C111.274 51.3965 109.896 36.2565 104.604 22.2967C99.3125 8.33685 90.3083 -3.91245 78.5636 -13.129C66.819 -22.3454 52.7801 -28.1791 37.9624 -30C26.8001 -28.5531 16.1102 -24.5973 6.69494 -18.4292C-2.72033 -12.2611 -10.6166 -4.04106 -16.4014 5.61439C-22.1863 15.2698 -25.7095 26.1099 -26.7068 37.3214C-27.7041 48.5329 -26.1496 59.8247 -22.1599 70.3496C-18.1702 80.8745 -11.8488 90.3594 -3.67009 98.0925C4.50861 105.826 14.3323 111.606 25.064 115.001C35.7957 118.395 47.1568 119.315 58.2949 117.692C69.433 116.069 80.059 111.944 89.3756 105.628Z" fill="white"/>
</g>
<mask id="mask0" mask-type="alpha" maskUnits="userSpaceOnUse" x="-53" y="-29" width="163" height="163">
<circle cx="28.5639" cy="52.2216" r="81.217" fill="white"/>
</mask>
<g mask="url(#mask0)">
<g style="mix-blend-mode:multiply" opacity="0.5">
<path d="M-65.7862 -0.453588C-16.3047 2.5532 33.2794 -4.34211 80.063 -20.7358C25.4535 20.477 -55.2184 31.2981 -126.493 17.0356C-109.423 24.4264 -89.7383 26.0741 -70.5683 26.7706C-10.5145 28.9621 53.4501 21.8893 100.505 -9.68618C94.656 8.23801 73.3868 18.9463 53.501 26.9413C26.1914 37.9332 -2.24974 47.4204 -32.0798 51.707C-61.9098 55.9936 -93.3366 54.8593 -121.336 45.189C-56.1626 69.2953 20.1511 61.8055 86.7174 40.5761C32.6516 69.2884 -33.4357 81.493 -96.7643 74.4588C-47.3045 82.3864 6.23404 88.1074 51.4086 69.3504C15.7296 86.0756 -25.8371 93.7155 -66.5227 91.0422C-32.3809 96.6415 2.52054 95.6034 36.2692 87.9849C7.28438 103.919 -29.7492 103.511 -64.3188 102.553C-8.97282 114.804 53.055 102.984 96.8021 71.8557C93.0853 96.4011 65.8474 113.007 40.0052 124.685C23.185 132.287 5.69443 139.196 -12.9635 142.549C-44.5968 148.231 -79.2916 142.813 -105.035 126.292C-130.778 109.77 -146.437 81.9541 -143.047 54.8043C-140.785 36.6722 -132.534 10.5685 -111.196 2.71939C-95.3685 -3.10345 -82.2154 -1.44609 -65.7862 -0.453588Z" fill="#51BCB7"/>
</g>
<g style="mix-blend-mode:multiply" opacity="0.2">
<path d="M98.6126 -12.1325C81.4932 -17.6039 64.4112 -21.1467 46.0318 -18.419C29.9684 -16.0336 15.1171 -9.63792 -1.5249 -9.55535C-7.45982 -9.52604 -74.9333 -7.20592 -74.6693 -10.1241C-74.8467 -8.13956 -72.4119 -6.66117 -70.1984 -5.62763C-50.3483 3.58763 -26.73 7.35685 -3.55835 6.87072C19.6133 6.38458 42.3862 1.80957 63.9698 -4.69798C33.4352 14.6436 -6.34509 25.1201 -45.8574 24.2331C-0.715515 28.5577 47.1305 28.298 87.7015 12.4406C79.9313 19.0605 71.0181 24.2102 61.399 27.6374C51.7066 31.1668 41.2142 33.1979 30.7217 34.8907C10.1717 38.205 -10.5547 40.3165 -31.3515 41.2145C13.6117 45.4246 60.7683 44.2312 101.987 29.7604C74.3369 42.89 46.2678 54.3069 14.2638 59.7862C28.715 57.3116 45.1784 57.0918 59.7937 56.2994C76.3277 55.4057 93.3444 51.5632 108.844 47.2253C94.9058 61.4764 72.8942 69.8259 50.5373 74.4635C28.1803 79.1011 4.93533 80.4943 -17.8363 83.7307C3.76461 87.9181 26.5976 86.9978 48.4025 83.5003C70.2074 80.0028 91.1789 74.0027 112.054 68.0239C97.3765 79.1424 78.2078 86.2174 58.4176 90.5593C38.6275 94.9012 18.0599 96.6686 -2.39562 98.4174C8.19549 104.944 22.8134 105.733 36.37 105.411C55.6398 104.959 74.8329 102.82 93.7284 99.018C61.1351 115.348 20.6267 122.037 -17.7869 117.435C-4.61967 124.001 12.125 124.494 27.7323 123.276C52.9306 121.376 77.6511 115.391 100.923 105.555C111.604 100.973 121.827 95.5112 129.755 88.343C136.693 81.9793 142.185 74.204 145.861 65.5413C154.128 46.562 153.448 24.036 137.412 8.28783C127.63 -1.30569 113.245 -7.45897 98.6126 -12.1325Z" fill="#51BCB7"/>
</g>
</g>
</g>
<defs>
<linearGradient id="paint0_linear" x1="-54" y1="51.9948" x2="109.99" y2="51.9948" gradientUnits="userSpaceOnUse">
<stop stop-color="#71FFFB"/>
<stop offset="0.997" stop-color="#0068FB"/>
</linearGradient>
<clipPath id="clip0">
<rect width="164" height="164" fill="white" transform="translate(-54 -30)"/>
</clipPath>
</defs>
</svg>
