<svg width="110" height="134" viewBox="0 0 110 134" fill="none" xmlns="http://www.w3.org/2000/svg">
<path d="M28 134C73.2873 134 110 97.2873 110 52C110 6.71265 73.2873 -30 28 -30C-17.2874 -30 -54 6.71265 -54 52C-54 97.2873 -17.2874 134 28 134Z" fill="#FFD0A6"/>
<path d="M28 134C73.2873 134 110 97.2873 110 52C110 6.71265 73.2873 -30 28 -30C-17.2874 -30 -54 6.71265 -54 52C-54 97.2873 -17.2874 134 28 134Z" fill="url(#paint0_linear)"/>
<g style="mix-blend-mode:multiply" opacity="0.5">
<path d="M-20.401 1.75066C-16.5749 0.18299 -11.5485 0.948492 -9.38847 4.61557C-7.88409 7.17106 -8.10738 10.515 -9.17731 13.2997C-10.4147 16.0396 -11.9322 18.6047 -13.6985 20.9421C-17.1467 26.1172 -19.9928 32.0017 -20.2939 38.3114C-20.5949 44.6211 -17.8499 51.3822 -12.4912 54.2402C-10.6832 55.3055 -8.59666 55.5937 -6.61614 55.0516C-5.14319 54.4483 -3.80304 53.4901 -2.688 52.2429C4.37516 45.2605 10.5108 37.1528 18.4641 31.3268C26.4174 25.5007 37.0177 22.2416 45.8822 26.3693C46.8641 26.7705 47.7625 27.397 48.5212 28.2098C49.9286 29.8748 50.0741 32.3237 49.9074 34.5423C49.2672 42.0021 46.1033 48.8904 41.0802 53.7601C36.3549 58.3909 27.8005 64.5849 33.33 72.2731C34.5407 73.8244 36.1257 74.9391 37.8891 75.4792C39.6525 76.0194 41.5168 75.9613 43.2513 75.3122C45.1831 74.5604 46.8218 73.0982 48.798 72.4714C57.7353 69.6351 60.4349 82.0871 59.6216 88.6776C58.4951 97.8326 53.6243 106.241 47.2199 112.416C39.6566 119.703 30.0202 124.22 20.1837 127.299C15.0522 128.903 8.26186 129.513 5.55723 124.663C3.63762 121.225 4.95104 116.877 6.31397 113.156C7.87525 108.872 9.43652 104.586 10.9978 100.298C12.8477 95.2198 14.5107 88.8964 11.0625 84.8432C8.36288 81.6608 3.62954 81.4947 -0.286472 82.6108C-4.20248 83.727 -7.84166 85.8665 -11.8466 86.5357C-26.6983 89.0076 -42.7897 74.102 -36.2267 57.8168C-35.4952 56.0085 -34.3323 54.3022 -34.2747 52.338C-34.0838 46.1303 -43.2242 41.1958 -44.4274 34.4713C-45.7004 27.3732 -41.7642 20.376 -37.1087 15.0587C-32.6198 9.942 -26.665 4.31533 -20.401 1.75066Z" fill="#FFD0A6"/>
</g>
<g style="mix-blend-mode:multiply" opacity="0.5">
<path d="M51.2286 -25.4792C37.5054 -25.3921 25.7685 -17.6111 12.4868 -16.9052C9.89593 -16.5794 7.38171 -15.7064 5.07406 -14.3313C3.59858 -13.6825 2.22118 -12.7771 0.991349 -11.6475C0.380752 -11.0751 -0.10551 -10.3511 -0.429802 -9.53135C-0.754095 -8.71163 -0.907714 -7.81825 -0.878755 -6.92039C-0.728217 -5.22781 0.263919 -3.81712 0.959021 -2.3033C4.383 5.16378 -0.810045 13.2898 -2.36695 20.4807C-2.68256 21.6529 -2.75177 22.8927 -2.56903 24.1008C-1.93859 27.2052 1.48034 28.6995 4.20922 27.9283C6.9381 27.1571 9.06787 24.801 10.9784 22.4586C16.7524 15.3743 21.904 7.41903 28.9914 2.0777C36.0788 -3.26362 45.9224 -5.39855 52.9653 0.0149689C59.39 4.94948 61.6299 14.6993 61.0479 23.4762C60.466 32.2532 57.6239 40.6049 56.0105 49.2111C55.4821 52.029 55.1567 55.2389 56.6853 57.5399C59.4829 61.7456 65.265 59.3735 69.8923 59.7631C72.651 60.0926 75.2165 61.5242 77.1302 63.802C79.0438 66.0799 80.1809 69.0554 80.338 72.1968C80.4027 75.1442 79.6065 78.2899 80.7654 80.9279C82.5062 84.8849 87.6295 85.1152 91.0767 83.0582C97.4771 79.2353 100.225 70.6703 102.434 62.8618C104.093 56.9998 105.75 51.1394 107.407 45.2805C108.553 41.2306 109.712 36.9974 109.106 32.7998C108.488 28.5242 106.121 24.8583 103.645 21.5602C97.1189 12.8757 89.3845 5.46012 80.7482 -0.392998C75.5956 -3.88474 69.8367 -7.12665 66.9351 -13.0902C65.6621 -15.7099 65.0074 -18.749 63.304 -21.0318C60.4791 -24.8192 55.6043 -25.5067 51.2286 -25.4792Z" fill="#FFD0A6"/>
</g>
<g style="mix-blend-mode:multiply" opacity="0.5">
<path d="M51.5742 5.50549C50.1082 2.49026 47.6478 0.0828351 44.5703 0.797551C41.5857 1.48753 40.9305 4.40293 39.6934 7.60634C37.5865 13.0467 33.6803 11.5739 30.6748 15.2226C30.3129 15.6191 30.0614 16.1448 29.9559 16.7258C29.8504 17.3069 29.8961 17.9139 30.0865 18.4614C30.6345 19.6982 32.0659 19.9226 33.1525 19.457C34.1913 18.8498 35.1935 18.1524 36.1515 17.3703C38.0899 16.1255 40.3767 16.0513 42.5671 16.076C44.7575 16.1008 47.0156 16.1865 49.0526 15.1926C51.0896 14.1987 52.8574 11.8187 52.704 9.13737C52.5631 7.83531 52.1762 6.59164 51.5742 5.50549Z" fill="#FFD0A6"/>
</g>
<g style="mix-blend-mode:multiply" opacity="0.5">
<path d="M-2.43209 94.3552C-0.602397 94.3323 1.43036 94.9041 2.42654 96.6472C3.05566 97.9513 3.25854 99.4655 2.99939 100.923C2.83565 102.289 2.52835 103.628 2.08405 104.912C1.48435 106.625 0.717806 108.257 -0.201306 109.778C-2.04732 113.101 -4.69449 115.755 -7.82925 117.425C-21.3605 123.96 -17.7041 94.5443 -2.43209 94.3552Z" fill="#FFD0A6"/>
</g>
<g style="mix-blend-mode:multiply" opacity="0.2">
<path d="M38.8668 124.492C22.8088 124.504 7.10147 119.797 -6.30346 110.956C-19.7084 102.114 -30.2199 89.5292 -36.5318 74.7638C-42.8437 59.9984 -44.6776 43.7037 -41.8058 27.9047C-38.934 12.1056 -31.4829 -2.50126 -20.3786 -14.1009C-29.5649 -7.39231 -37.2536 1.15563 -42.9551 10.9987C-48.6566 20.8417 -52.246 31.7641 -53.4948 43.0705C-54.7435 54.3768 -53.6243 65.8193 -50.2082 76.6693C-46.7922 87.5194 -41.1543 97.5392 -33.6535 106.091C-26.1526 114.642 -16.9533 121.538 -6.64112 126.34C3.67102 131.141 14.87 133.742 26.2426 133.978C37.6153 134.214 48.9124 132.079 59.4147 127.709C69.917 123.34 79.3943 116.831 87.2432 108.598C73.2274 118.923 56.2753 124.493 38.8668 124.492Z" fill="#222226"/>
</g>
<g style="mix-blend-mode:overlay" opacity="0.2">
<path d="M27.9995 -29.9968C16.1568 -29.9889 4.45803 -27.4012 -6.28312 -22.4135C-18.7462 -8.33135 -25.9827 9.61133 -26.7768 28.3998C-27.5708 47.1882 -21.874 65.6774 -10.6435 80.7609C0.587 95.8444 16.6668 106.603 34.8942 111.229C53.1215 115.855 72.3857 114.066 89.4498 106.164C99.9031 94.3429 106.719 79.7541 109.078 64.1517C111.437 48.5492 109.239 32.5975 102.748 18.2147C96.2565 3.83185 85.7486 -8.36965 72.4878 -16.9225C59.2269 -25.4754 43.7777 -30.0154 27.9979 -29.9968H27.9995Z" fill="white"/>
</g>
<defs>
<linearGradient id="paint0_linear" x1="-54.82" y1="47.736" x2="155.92" y2="58.56" gradientUnits="userSpaceOnUse">
<stop stop-color="#FFD0A6"/>
<stop offset="0.993" stop-color="#FF77A6"/>
</linearGradient>
</defs>
</svg>
